G04 #@! TF.GenerationSoftware,KiCad,Pcbnew,6.0.9-8da3e8f707~116~ubuntu20.04.1*
G04 #@! TF.CreationDate,2023-03-26T17:56:32+00:00*
G04 #@! TF.ProjectId,LEC011001,4c454330-3131-4303-9031-2e6b69636164,rev?*
G04 #@! TF.SameCoordinates,Original*
G04 #@! TF.FileFunction,Legend,Bot*
G04 #@! TF.FilePolarity,Positive*
%FSLAX46Y46*%
G04 Gerber Fmt 4.6, Leading zero omitted, Abs format (unit mm)*
G04 Created by KiCad (PCBNEW 6.0.9-8da3e8f707~116~ubuntu20.04.1) date 2023-03-26 17:56:32*
%MOMM*%
%LPD*%
G01*
G04 APERTURE LIST*
%ADD10C,0.150000*%
%ADD11C,0.120000*%
%ADD12C,0.010000*%
G04 APERTURE END LIST*
D10*
G04 #@! TO.C,TP1*
X88891904Y-41740380D02*
X88320476Y-41740380D01*
X88606190Y-42740380D02*
X88606190Y-41740380D01*
X87987142Y-42740380D02*
X87987142Y-41740380D01*
X87606190Y-41740380D01*
X87510952Y-41788000D01*
X87463333Y-41835619D01*
X87415714Y-41930857D01*
X87415714Y-42073714D01*
X87463333Y-42168952D01*
X87510952Y-42216571D01*
X87606190Y-42264190D01*
X87987142Y-42264190D01*
X86463333Y-42740380D02*
X87034761Y-42740380D01*
X86749047Y-42740380D02*
X86749047Y-41740380D01*
X86844285Y-41883238D01*
X86939523Y-41978476D01*
X87034761Y-42026095D01*
G04 #@! TO.C,TP2*
X88891904Y-46820380D02*
X88320476Y-46820380D01*
X88606190Y-47820380D02*
X88606190Y-46820380D01*
X87987142Y-47820380D02*
X87987142Y-46820380D01*
X87606190Y-46820380D01*
X87510952Y-46868000D01*
X87463333Y-46915619D01*
X87415714Y-47010857D01*
X87415714Y-47153714D01*
X87463333Y-47248952D01*
X87510952Y-47296571D01*
X87606190Y-47344190D01*
X87987142Y-47344190D01*
X87034761Y-46915619D02*
X86987142Y-46868000D01*
X86891904Y-46820380D01*
X86653809Y-46820380D01*
X86558571Y-46868000D01*
X86510952Y-46915619D01*
X86463333Y-47010857D01*
X86463333Y-47106095D01*
X86510952Y-47248952D01*
X87082380Y-47820380D01*
X86463333Y-47820380D01*
G04 #@! TO.C,TP3*
X116831904Y-45550380D02*
X116260476Y-45550380D01*
X116546190Y-46550380D02*
X116546190Y-45550380D01*
X115927142Y-46550380D02*
X115927142Y-45550380D01*
X115546190Y-45550380D01*
X115450952Y-45598000D01*
X115403333Y-45645619D01*
X115355714Y-45740857D01*
X115355714Y-45883714D01*
X115403333Y-45978952D01*
X115450952Y-46026571D01*
X115546190Y-46074190D01*
X115927142Y-46074190D01*
X115022380Y-45550380D02*
X114403333Y-45550380D01*
X114736666Y-45931333D01*
X114593809Y-45931333D01*
X114498571Y-45978952D01*
X114450952Y-46026571D01*
X114403333Y-46121809D01*
X114403333Y-46359904D01*
X114450952Y-46455142D01*
X114498571Y-46502761D01*
X114593809Y-46550380D01*
X114879523Y-46550380D01*
X114974761Y-46502761D01*
X115022380Y-46455142D01*
G04 #@! TO.C,TP4*
X120641904Y-34755380D02*
X120070476Y-34755380D01*
X120356190Y-35755380D02*
X120356190Y-34755380D01*
X119737142Y-35755380D02*
X119737142Y-34755380D01*
X119356190Y-34755380D01*
X119260952Y-34803000D01*
X119213333Y-34850619D01*
X119165714Y-34945857D01*
X119165714Y-35088714D01*
X119213333Y-35183952D01*
X119260952Y-35231571D01*
X119356190Y-35279190D01*
X119737142Y-35279190D01*
X118308571Y-35088714D02*
X118308571Y-35755380D01*
X118546666Y-34707761D02*
X118784761Y-35422047D01*
X118165714Y-35422047D01*
G04 #@! TO.C,TP5*
X107941904Y-36660380D02*
X107370476Y-36660380D01*
X107656190Y-37660380D02*
X107656190Y-36660380D01*
X107037142Y-37660380D02*
X107037142Y-36660380D01*
X106656190Y-36660380D01*
X106560952Y-36708000D01*
X106513333Y-36755619D01*
X106465714Y-36850857D01*
X106465714Y-36993714D01*
X106513333Y-37088952D01*
X106560952Y-37136571D01*
X106656190Y-37184190D01*
X107037142Y-37184190D01*
X105560952Y-36660380D02*
X106037142Y-36660380D01*
X106084761Y-37136571D01*
X106037142Y-37088952D01*
X105941904Y-37041333D01*
X105703809Y-37041333D01*
X105608571Y-37088952D01*
X105560952Y-37136571D01*
X105513333Y-37231809D01*
X105513333Y-37469904D01*
X105560952Y-37565142D01*
X105608571Y-37612761D01*
X105703809Y-37660380D01*
X105941904Y-37660380D01*
X106037142Y-37612761D01*
X106084761Y-37565142D01*
G04 #@! TO.C,TP6*
X135977380Y-34933095D02*
X135977380Y-35504523D01*
X136977380Y-35218809D02*
X135977380Y-35218809D01*
X136977380Y-35837857D02*
X135977380Y-35837857D01*
X135977380Y-36218809D01*
X136025000Y-36314047D01*
X136072619Y-36361666D01*
X136167857Y-36409285D01*
X136310714Y-36409285D01*
X136405952Y-36361666D01*
X136453571Y-36314047D01*
X136501190Y-36218809D01*
X136501190Y-35837857D01*
X135977380Y-37266428D02*
X135977380Y-37075952D01*
X136025000Y-36980714D01*
X136072619Y-36933095D01*
X136215476Y-36837857D01*
X136405952Y-36790238D01*
X136786904Y-36790238D01*
X136882142Y-36837857D01*
X136929761Y-36885476D01*
X136977380Y-36980714D01*
X136977380Y-37171190D01*
X136929761Y-37266428D01*
X136882142Y-37314047D01*
X136786904Y-37361666D01*
X136548809Y-37361666D01*
X136453571Y-37314047D01*
X136405952Y-37266428D01*
X136358333Y-37171190D01*
X136358333Y-36980714D01*
X136405952Y-36885476D01*
X136453571Y-36837857D01*
X136548809Y-36790238D01*
G04 #@! TO.C,TP7*
X130897380Y-34933095D02*
X130897380Y-35504523D01*
X131897380Y-35218809D02*
X130897380Y-35218809D01*
X131897380Y-35837857D02*
X130897380Y-35837857D01*
X130897380Y-36218809D01*
X130945000Y-36314047D01*
X130992619Y-36361666D01*
X131087857Y-36409285D01*
X131230714Y-36409285D01*
X131325952Y-36361666D01*
X131373571Y-36314047D01*
X131421190Y-36218809D01*
X131421190Y-35837857D01*
X130897380Y-36742619D02*
X130897380Y-37409285D01*
X131897380Y-36980714D01*
G04 #@! TO.C,TP8*
X141057380Y-34933095D02*
X141057380Y-35504523D01*
X142057380Y-35218809D02*
X141057380Y-35218809D01*
X142057380Y-35837857D02*
X141057380Y-35837857D01*
X141057380Y-36218809D01*
X141105000Y-36314047D01*
X141152619Y-36361666D01*
X141247857Y-36409285D01*
X141390714Y-36409285D01*
X141485952Y-36361666D01*
X141533571Y-36314047D01*
X141581190Y-36218809D01*
X141581190Y-35837857D01*
X141485952Y-36980714D02*
X141438333Y-36885476D01*
X141390714Y-36837857D01*
X141295476Y-36790238D01*
X141247857Y-36790238D01*
X141152619Y-36837857D01*
X141105000Y-36885476D01*
X141057380Y-36980714D01*
X141057380Y-37171190D01*
X141105000Y-37266428D01*
X141152619Y-37314047D01*
X141247857Y-37361666D01*
X141295476Y-37361666D01*
X141390714Y-37314047D01*
X141438333Y-37266428D01*
X141485952Y-37171190D01*
X141485952Y-36980714D01*
X141533571Y-36885476D01*
X141581190Y-36837857D01*
X141676428Y-36790238D01*
X141866904Y-36790238D01*
X141962142Y-36837857D01*
X142009761Y-36885476D01*
X142057380Y-36980714D01*
X142057380Y-37171190D01*
X142009761Y-37266428D01*
X141962142Y-37314047D01*
X141866904Y-37361666D01*
X141676428Y-37361666D01*
X141581190Y-37314047D01*
X141533571Y-37266428D01*
X141485952Y-37171190D01*
G04 #@! TO.C,TP9*
X135977380Y-48903095D02*
X135977380Y-49474523D01*
X136977380Y-49188809D02*
X135977380Y-49188809D01*
X136977380Y-49807857D02*
X135977380Y-49807857D01*
X135977380Y-50188809D01*
X136025000Y-50284047D01*
X136072619Y-50331666D01*
X136167857Y-50379285D01*
X136310714Y-50379285D01*
X136405952Y-50331666D01*
X136453571Y-50284047D01*
X136501190Y-50188809D01*
X136501190Y-49807857D01*
X136977380Y-50855476D02*
X136977380Y-51045952D01*
X136929761Y-51141190D01*
X136882142Y-51188809D01*
X136739285Y-51284047D01*
X136548809Y-51331666D01*
X136167857Y-51331666D01*
X136072619Y-51284047D01*
X136025000Y-51236428D01*
X135977380Y-51141190D01*
X135977380Y-50950714D01*
X136025000Y-50855476D01*
X136072619Y-50807857D01*
X136167857Y-50760238D01*
X136405952Y-50760238D01*
X136501190Y-50807857D01*
X136548809Y-50855476D01*
X136596428Y-50950714D01*
X136596428Y-51141190D01*
X136548809Y-51236428D01*
X136501190Y-51284047D01*
X136405952Y-51331666D01*
G04 #@! TO.C,TP10*
X130897380Y-47791904D02*
X130897380Y-48363333D01*
X131897380Y-48077619D02*
X130897380Y-48077619D01*
X131897380Y-48696666D02*
X130897380Y-48696666D01*
X130897380Y-49077619D01*
X130945000Y-49172857D01*
X130992619Y-49220476D01*
X131087857Y-49268095D01*
X131230714Y-49268095D01*
X131325952Y-49220476D01*
X131373571Y-49172857D01*
X131421190Y-49077619D01*
X131421190Y-48696666D01*
X131897380Y-50220476D02*
X131897380Y-49649047D01*
X131897380Y-49934761D02*
X130897380Y-49934761D01*
X131040238Y-49839523D01*
X131135476Y-49744285D01*
X131183095Y-49649047D01*
X130897380Y-50839523D02*
X130897380Y-50934761D01*
X130945000Y-51030000D01*
X130992619Y-51077619D01*
X131087857Y-51125238D01*
X131278333Y-51172857D01*
X131516428Y-51172857D01*
X131706904Y-51125238D01*
X131802142Y-51077619D01*
X131849761Y-51030000D01*
X131897380Y-50934761D01*
X131897380Y-50839523D01*
X131849761Y-50744285D01*
X131802142Y-50696666D01*
X131706904Y-50649047D01*
X131516428Y-50601428D01*
X131278333Y-50601428D01*
X131087857Y-50649047D01*
X130992619Y-50696666D01*
X130945000Y-50744285D01*
X130897380Y-50839523D01*
G04 #@! TO.C,TP11*
X141057380Y-48426904D02*
X141057380Y-48998333D01*
X142057380Y-48712619D02*
X141057380Y-48712619D01*
X142057380Y-49331666D02*
X141057380Y-49331666D01*
X141057380Y-49712619D01*
X141105000Y-49807857D01*
X141152619Y-49855476D01*
X141247857Y-49903095D01*
X141390714Y-49903095D01*
X141485952Y-49855476D01*
X141533571Y-49807857D01*
X141581190Y-49712619D01*
X141581190Y-49331666D01*
X142057380Y-50855476D02*
X142057380Y-50284047D01*
X142057380Y-50569761D02*
X141057380Y-50569761D01*
X141200238Y-50474523D01*
X141295476Y-50379285D01*
X141343095Y-50284047D01*
X142057380Y-51807857D02*
X142057380Y-51236428D01*
X142057380Y-51522142D02*
X141057380Y-51522142D01*
X141200238Y-51426904D01*
X141295476Y-51331666D01*
X141343095Y-51236428D01*
D11*
G04 #@! TO.C,H1*
X87044903Y-53340000D02*
G75*
G03*
X87044903Y-53340000I-3224903J0D01*
G01*
G36*
X82220000Y-53440000D02*
G01*
X82320000Y-53840000D01*
X82520000Y-54240000D01*
X82920000Y-54640000D01*
X83320000Y-54840000D01*
X83720000Y-54940000D01*
X83820000Y-54940000D01*
X83820000Y-56564903D01*
X83320000Y-56540000D01*
X82320000Y-56240000D01*
X81520000Y-55640000D01*
X81020000Y-54940000D01*
X80720000Y-54240000D01*
X80620000Y-53840000D01*
X80620000Y-53340000D01*
X82220000Y-53340000D01*
X82220000Y-53440000D01*
G37*
D12*
X82220000Y-53440000D02*
X82320000Y-53840000D01*
X82520000Y-54240000D01*
X82920000Y-54640000D01*
X83320000Y-54840000D01*
X83720000Y-54940000D01*
X83820000Y-54940000D01*
X83820000Y-56564903D01*
X83320000Y-56540000D01*
X82320000Y-56240000D01*
X81520000Y-55640000D01*
X81020000Y-54940000D01*
X80720000Y-54240000D01*
X80620000Y-53840000D01*
X80620000Y-53340000D01*
X82220000Y-53340000D01*
X82220000Y-53440000D01*
G36*
X84320000Y-50140000D02*
G01*
X85320000Y-50440000D01*
X86120000Y-51040000D01*
X86620000Y-51740000D01*
X86920000Y-52440000D01*
X87020000Y-52840000D01*
X87020000Y-53340000D01*
X85420000Y-53340000D01*
X85420000Y-53240000D01*
X85320000Y-52840000D01*
X85120000Y-52440000D01*
X84720000Y-52040000D01*
X84320000Y-51840000D01*
X83920000Y-51740000D01*
X83820000Y-51740000D01*
X83820000Y-50115097D01*
X84320000Y-50140000D01*
G37*
X84320000Y-50140000D02*
X85320000Y-50440000D01*
X86120000Y-51040000D01*
X86620000Y-51740000D01*
X86920000Y-52440000D01*
X87020000Y-52840000D01*
X87020000Y-53340000D01*
X85420000Y-53340000D01*
X85420000Y-53240000D01*
X85320000Y-52840000D01*
X85120000Y-52440000D01*
X84720000Y-52040000D01*
X84320000Y-51840000D01*
X83920000Y-51740000D01*
X83820000Y-51740000D01*
X83820000Y-50115097D01*
X84320000Y-50140000D01*
D11*
G04 #@! TO.C,H2*
X128954903Y-33020000D02*
G75*
G03*
X128954903Y-33020000I-3224903J0D01*
G01*
G36*
X124130000Y-33120000D02*
G01*
X124230000Y-33520000D01*
X124430000Y-33920000D01*
X124830000Y-34320000D01*
X125230000Y-34520000D01*
X125630000Y-34620000D01*
X125730000Y-34620000D01*
X125730000Y-36244903D01*
X125230000Y-36220000D01*
X124230000Y-35920000D01*
X123430000Y-35320000D01*
X122930000Y-34620000D01*
X122630000Y-33920000D01*
X122530000Y-33520000D01*
X122530000Y-33020000D01*
X124130000Y-33020000D01*
X124130000Y-33120000D01*
G37*
D12*
X124130000Y-33120000D02*
X124230000Y-33520000D01*
X124430000Y-33920000D01*
X124830000Y-34320000D01*
X125230000Y-34520000D01*
X125630000Y-34620000D01*
X125730000Y-34620000D01*
X125730000Y-36244903D01*
X125230000Y-36220000D01*
X124230000Y-35920000D01*
X123430000Y-35320000D01*
X122930000Y-34620000D01*
X122630000Y-33920000D01*
X122530000Y-33520000D01*
X122530000Y-33020000D01*
X124130000Y-33020000D01*
X124130000Y-33120000D01*
G36*
X126230000Y-29820000D02*
G01*
X127230000Y-30120000D01*
X128030000Y-30720000D01*
X128530000Y-31420000D01*
X128830000Y-32120000D01*
X128930000Y-32520000D01*
X128930000Y-33020000D01*
X127330000Y-33020000D01*
X127330000Y-32920000D01*
X127230000Y-32520000D01*
X127030000Y-32120000D01*
X126630000Y-31720000D01*
X126230000Y-31520000D01*
X125830000Y-31420000D01*
X125730000Y-31420000D01*
X125730000Y-29795097D01*
X126230000Y-29820000D01*
G37*
X126230000Y-29820000D02*
X127230000Y-30120000D01*
X128030000Y-30720000D01*
X128530000Y-31420000D01*
X128830000Y-32120000D01*
X128930000Y-32520000D01*
X128930000Y-33020000D01*
X127330000Y-33020000D01*
X127330000Y-32920000D01*
X127230000Y-32520000D01*
X127030000Y-32120000D01*
X126630000Y-31720000D01*
X126230000Y-31520000D01*
X125830000Y-31420000D01*
X125730000Y-31420000D01*
X125730000Y-29795097D01*
X126230000Y-29820000D01*
D11*
G04 #@! TO.C,H3*
X87044903Y-33020000D02*
G75*
G03*
X87044903Y-33020000I-3224903J0D01*
G01*
G36*
X84320000Y-29820000D02*
G01*
X85320000Y-30120000D01*
X86120000Y-30720000D01*
X86620000Y-31420000D01*
X86920000Y-32120000D01*
X87020000Y-32520000D01*
X87020000Y-33020000D01*
X85420000Y-33020000D01*
X85420000Y-32920000D01*
X85320000Y-32520000D01*
X85120000Y-32120000D01*
X84720000Y-31720000D01*
X84320000Y-31520000D01*
X83920000Y-31420000D01*
X83820000Y-31420000D01*
X83820000Y-29795097D01*
X84320000Y-29820000D01*
G37*
D12*
X84320000Y-29820000D02*
X85320000Y-30120000D01*
X86120000Y-30720000D01*
X86620000Y-31420000D01*
X86920000Y-32120000D01*
X87020000Y-32520000D01*
X87020000Y-33020000D01*
X85420000Y-33020000D01*
X85420000Y-32920000D01*
X85320000Y-32520000D01*
X85120000Y-32120000D01*
X84720000Y-31720000D01*
X84320000Y-31520000D01*
X83920000Y-31420000D01*
X83820000Y-31420000D01*
X83820000Y-29795097D01*
X84320000Y-29820000D01*
G36*
X82220000Y-33120000D02*
G01*
X82320000Y-33520000D01*
X82520000Y-33920000D01*
X82920000Y-34320000D01*
X83320000Y-34520000D01*
X83720000Y-34620000D01*
X83820000Y-34620000D01*
X83820000Y-36244903D01*
X83320000Y-36220000D01*
X82320000Y-35920000D01*
X81520000Y-35320000D01*
X81020000Y-34620000D01*
X80720000Y-33920000D01*
X80620000Y-33520000D01*
X80620000Y-33020000D01*
X82220000Y-33020000D01*
X82220000Y-33120000D01*
G37*
X82220000Y-33120000D02*
X82320000Y-33520000D01*
X82520000Y-33920000D01*
X82920000Y-34320000D01*
X83320000Y-34520000D01*
X83720000Y-34620000D01*
X83820000Y-34620000D01*
X83820000Y-36244903D01*
X83320000Y-36220000D01*
X82320000Y-35920000D01*
X81520000Y-35320000D01*
X81020000Y-34620000D01*
X80720000Y-33920000D01*
X80620000Y-33520000D01*
X80620000Y-33020000D01*
X82220000Y-33020000D01*
X82220000Y-33120000D01*
D11*
G04 #@! TO.C,H4*
X128954903Y-53340000D02*
G75*
G03*
X128954903Y-53340000I-3224903J0D01*
G01*
G36*
X126230000Y-50140000D02*
G01*
X127230000Y-50440000D01*
X128030000Y-51040000D01*
X128530000Y-51740000D01*
X128830000Y-52440000D01*
X128930000Y-52840000D01*
X128930000Y-53340000D01*
X127330000Y-53340000D01*
X127330000Y-53240000D01*
X127230000Y-52840000D01*
X127030000Y-52440000D01*
X126630000Y-52040000D01*
X126230000Y-51840000D01*
X125830000Y-51740000D01*
X125730000Y-51740000D01*
X125730000Y-50115097D01*
X126230000Y-50140000D01*
G37*
D12*
X126230000Y-50140000D02*
X127230000Y-50440000D01*
X128030000Y-51040000D01*
X128530000Y-51740000D01*
X128830000Y-52440000D01*
X128930000Y-52840000D01*
X128930000Y-53340000D01*
X127330000Y-53340000D01*
X127330000Y-53240000D01*
X127230000Y-52840000D01*
X127030000Y-52440000D01*
X126630000Y-52040000D01*
X126230000Y-51840000D01*
X125830000Y-51740000D01*
X125730000Y-51740000D01*
X125730000Y-50115097D01*
X126230000Y-50140000D01*
G36*
X124130000Y-53440000D02*
G01*
X124230000Y-53840000D01*
X124430000Y-54240000D01*
X124830000Y-54640000D01*
X125230000Y-54840000D01*
X125630000Y-54940000D01*
X125730000Y-54940000D01*
X125730000Y-56564903D01*
X125230000Y-56540000D01*
X124230000Y-56240000D01*
X123430000Y-55640000D01*
X122930000Y-54940000D01*
X122630000Y-54240000D01*
X122530000Y-53840000D01*
X122530000Y-53340000D01*
X124130000Y-53340000D01*
X124130000Y-53440000D01*
G37*
X124130000Y-53440000D02*
X124230000Y-53840000D01*
X124430000Y-54240000D01*
X124830000Y-54640000D01*
X125230000Y-54840000D01*
X125630000Y-54940000D01*
X125730000Y-54940000D01*
X125730000Y-56564903D01*
X125230000Y-56540000D01*
X124230000Y-56240000D01*
X123430000Y-55640000D01*
X122930000Y-54940000D01*
X122630000Y-54240000D01*
X122530000Y-53840000D01*
X122530000Y-53340000D01*
X124130000Y-53340000D01*
X124130000Y-53440000D01*
D11*
G04 #@! TO.C,TP1*
X88580000Y-40640000D02*
G75*
G03*
X88580000Y-40640000I-950000J0D01*
G01*
G04 #@! TO.C,TP2*
X88580000Y-45720000D02*
G75*
G03*
X88580000Y-45720000I-950000J0D01*
G01*
G04 #@! TO.C,TP3*
X116520000Y-44450000D02*
G75*
G03*
X116520000Y-44450000I-950000J0D01*
G01*
G04 #@! TO.C,TP4*
X120330000Y-33655000D02*
G75*
G03*
X120330000Y-33655000I-950000J0D01*
G01*
G04 #@! TO.C,TP5*
X107630000Y-35560000D02*
G75*
G03*
X107630000Y-35560000I-950000J0D01*
G01*
G04 #@! TO.C,TP6*
X139380000Y-36195000D02*
G75*
G03*
X139380000Y-36195000I-950000J0D01*
G01*
G04 #@! TO.C,TP7*
X134300000Y-36195000D02*
G75*
G03*
X134300000Y-36195000I-950000J0D01*
G01*
G04 #@! TO.C,TP8*
X144460000Y-36195000D02*
G75*
G03*
X144460000Y-36195000I-950000J0D01*
G01*
G04 #@! TO.C,TP9*
X139380000Y-50165000D02*
G75*
G03*
X139380000Y-50165000I-950000J0D01*
G01*
G04 #@! TO.C,TP10*
X134300000Y-50165000D02*
G75*
G03*
X134300000Y-50165000I-950000J0D01*
G01*
G04 #@! TO.C,TP11*
X144460000Y-50165000D02*
G75*
G03*
X144460000Y-50165000I-950000J0D01*
G01*
G04 #@! TO.C,REF\u002A\u002A*
G36*
X92451662Y-33320696D02*
G01*
X92491314Y-33321782D01*
X92559109Y-33321782D01*
X92559109Y-33434951D01*
X92399577Y-33434951D01*
X92384682Y-33612732D01*
X92382682Y-33637037D01*
X92378023Y-33697880D01*
X92374731Y-33747389D01*
X92373092Y-33780992D01*
X92373390Y-33794116D01*
X92377724Y-33790343D01*
X92397496Y-33770676D01*
X92431679Y-33735818D01*
X92478541Y-33687576D01*
X92536354Y-33627757D01*
X92603387Y-33558167D01*
X92677912Y-33480615D01*
X92758197Y-33396907D01*
X92842513Y-33308849D01*
X92929130Y-33218250D01*
X93016319Y-33126915D01*
X93102349Y-33036653D01*
X93185492Y-32949269D01*
X93264016Y-32866572D01*
X93336192Y-32790368D01*
X93400291Y-32722463D01*
X93454583Y-32664666D01*
X93551592Y-32561040D01*
X93552034Y-32649315D01*
X93552475Y-32737589D01*
X92951938Y-33369158D01*
X92351401Y-34000726D01*
X92339396Y-34144674D01*
X92291365Y-34720635D01*
X92282876Y-34822791D01*
X92272343Y-34950612D01*
X92262621Y-35069767D01*
X92253898Y-35177914D01*
X92246358Y-35272713D01*
X92240187Y-35351819D01*
X92235573Y-35412892D01*
X92232700Y-35453590D01*
X92231754Y-35471570D01*
X92234251Y-35479808D01*
X92245471Y-35497599D01*
X92266751Y-35524411D01*
X92277021Y-35536129D01*
X92299225Y-35561466D01*
X92344023Y-35609986D01*
X92402281Y-35671192D01*
X92475129Y-35746307D01*
X92563703Y-35836550D01*
X92669134Y-35943145D01*
X92738492Y-36013093D01*
X92835179Y-36110658D01*
X92931526Y-36207941D01*
X93024638Y-36302014D01*
X93111618Y-36389950D01*
X93189569Y-36468820D01*
X93255596Y-36535699D01*
X93306802Y-36587658D01*
X93507514Y-36791620D01*
X93471058Y-36829671D01*
X93462460Y-36838245D01*
X93437095Y-36859297D01*
X93419695Y-36867723D01*
X93406071Y-36860530D01*
X93380743Y-36838944D01*
X93350379Y-36807995D01*
X93331896Y-36788448D01*
X93297427Y-36752752D01*
X93248712Y-36702684D01*
X93187469Y-36640001D01*
X93115420Y-36566457D01*
X93034285Y-36483810D01*
X92945784Y-36393815D01*
X92851637Y-36298228D01*
X92753565Y-36198805D01*
X92211161Y-35649343D01*
X92189066Y-35934746D01*
X92184250Y-35995662D01*
X92177216Y-36077548D01*
X92170872Y-36139569D01*
X92164748Y-36184987D01*
X92158373Y-36217062D01*
X92151277Y-36239052D01*
X92142991Y-36254219D01*
X92131393Y-36275416D01*
X92121850Y-36314386D01*
X92119010Y-36370531D01*
X92119010Y-36452773D01*
X91892674Y-36452773D01*
X91892674Y-36276733D01*
X91047082Y-36276733D01*
X90998203Y-36332262D01*
X90984836Y-36346722D01*
X90912388Y-36404813D01*
X90830532Y-36440576D01*
X90741900Y-36452773D01*
X90663692Y-36446306D01*
X90575233Y-36419047D01*
X90499507Y-36370328D01*
X90484748Y-36356403D01*
X90447864Y-36311328D01*
X90415503Y-36258819D01*
X90392297Y-36207061D01*
X90382879Y-36164239D01*
X90382697Y-36158023D01*
X90381342Y-36135246D01*
X90377800Y-36119513D01*
X90370390Y-36112068D01*
X90357431Y-36114156D01*
X90337243Y-36127020D01*
X90308145Y-36151905D01*
X90268456Y-36190053D01*
X90216496Y-36242710D01*
X90150584Y-36311119D01*
X90069040Y-36396524D01*
X90025604Y-36442112D01*
X89953000Y-36518441D01*
X89884309Y-36590808D01*
X89822223Y-36656366D01*
X89769434Y-36712274D01*
X89728634Y-36755686D01*
X89702515Y-36783758D01*
X89631119Y-36861436D01*
X89542863Y-36773416D01*
X90088690Y-36201287D01*
X90123105Y-36165188D01*
X90245546Y-36036272D01*
X90350651Y-35924754D01*
X90438736Y-35830288D01*
X90510116Y-35752529D01*
X90560588Y-35696174D01*
X90767247Y-35696174D01*
X90768872Y-35709434D01*
X90769156Y-35710819D01*
X90782698Y-35742228D01*
X90809748Y-35756863D01*
X90893129Y-35788063D01*
X90967418Y-35840038D01*
X91025846Y-35908791D01*
X91065890Y-35991315D01*
X91085026Y-36084606D01*
X91091364Y-36163565D01*
X92040838Y-36163565D01*
X92047458Y-36135273D01*
X92048629Y-36128329D01*
X92052268Y-36097281D01*
X92057234Y-36047081D01*
X92063157Y-35981727D01*
X92069669Y-35905219D01*
X92076401Y-35821555D01*
X92098724Y-35536129D01*
X91797826Y-35230565D01*
X91742636Y-35174704D01*
X91675109Y-35106888D01*
X91614529Y-35046643D01*
X91563021Y-34996052D01*
X91522710Y-34957200D01*
X91495722Y-34932170D01*
X91484182Y-34923046D01*
X91476444Y-34927405D01*
X91453395Y-34947241D01*
X91418709Y-34980375D01*
X91375487Y-35023820D01*
X91326832Y-35074587D01*
X91314140Y-35088051D01*
X91257229Y-35148275D01*
X91189414Y-35219864D01*
X91115800Y-35297437D01*
X91041493Y-35375611D01*
X90971599Y-35449005D01*
X90967401Y-35453409D01*
X90902420Y-35521785D01*
X90852836Y-35574732D01*
X90816688Y-35614767D01*
X90792016Y-35644411D01*
X90776858Y-35666181D01*
X90769256Y-35682595D01*
X90767247Y-35696174D01*
X90560588Y-35696174D01*
X90565105Y-35691131D01*
X90604019Y-35645748D01*
X90627173Y-35616035D01*
X90634882Y-35601644D01*
X90634883Y-35601559D01*
X90633825Y-35583624D01*
X90630737Y-35543421D01*
X90625858Y-35483687D01*
X90619432Y-35407158D01*
X90611700Y-35316569D01*
X90602905Y-35214657D01*
X90593287Y-35104159D01*
X90583091Y-34987811D01*
X90572556Y-34868348D01*
X90561926Y-34748507D01*
X90551442Y-34631025D01*
X90541346Y-34518637D01*
X90531881Y-34414081D01*
X90523288Y-34320091D01*
X90515809Y-34239405D01*
X90509687Y-34174759D01*
X90505162Y-34128888D01*
X90502478Y-34104530D01*
X90497067Y-34063732D01*
X90626253Y-34063732D01*
X90627908Y-34094653D01*
X90631549Y-34146653D01*
X90636995Y-34217487D01*
X90644063Y-34304911D01*
X90652570Y-34406681D01*
X90662335Y-34520552D01*
X90673174Y-34644279D01*
X90684907Y-34775618D01*
X90694079Y-34876908D01*
X90705566Y-35002526D01*
X90716322Y-35118762D01*
X90726131Y-35223380D01*
X90734781Y-35314140D01*
X90742057Y-35388804D01*
X90747746Y-35445134D01*
X90751634Y-35480891D01*
X90753506Y-35493837D01*
X90759188Y-35489826D01*
X90780020Y-35470138D01*
X90813872Y-35436322D01*
X90858412Y-35390837D01*
X90911310Y-35336146D01*
X90970236Y-35274710D01*
X91032858Y-35208990D01*
X91096848Y-35141449D01*
X91159874Y-35074547D01*
X91219606Y-35010746D01*
X91273713Y-34952507D01*
X91319865Y-34902292D01*
X91355733Y-34862563D01*
X91378984Y-34835780D01*
X91385778Y-34826477D01*
X91567601Y-34826477D01*
X91843305Y-35101968D01*
X91910726Y-35169224D01*
X91974267Y-35232162D01*
X92023490Y-35280100D01*
X92060196Y-35314594D01*
X92086190Y-35337199D01*
X92103276Y-35349471D01*
X92113256Y-35352966D01*
X92117935Y-35349238D01*
X92119116Y-35339844D01*
X92119873Y-35324749D01*
X92122601Y-35285883D01*
X92127108Y-35226895D01*
X92133179Y-35150473D01*
X92140596Y-35059305D01*
X92149142Y-34956080D01*
X92158602Y-34843483D01*
X92168758Y-34724205D01*
X92177723Y-34619077D01*
X92187066Y-34508351D01*
X92195443Y-34407814D01*
X92202653Y-34319943D01*
X92208496Y-34247215D01*
X92212769Y-34192110D01*
X92215273Y-34157104D01*
X92215805Y-34144674D01*
X92215384Y-34144908D01*
X92203509Y-34156350D01*
X92177130Y-34183198D01*
X92138570Y-34223018D01*
X92090153Y-34273372D01*
X92034203Y-34331828D01*
X91973042Y-34395948D01*
X91908995Y-34463298D01*
X91844385Y-34531443D01*
X91781535Y-34597948D01*
X91722768Y-34660377D01*
X91670409Y-34716295D01*
X91569533Y-34824406D01*
X91567601Y-34826477D01*
X91385778Y-34826477D01*
X91387290Y-34824406D01*
X91379148Y-34813383D01*
X91355478Y-34786999D01*
X91318478Y-34747527D01*
X91270350Y-34697191D01*
X91213296Y-34638217D01*
X91149520Y-34572830D01*
X91081222Y-34503255D01*
X91010605Y-34431716D01*
X90939871Y-34360438D01*
X90871222Y-34291647D01*
X90806861Y-34227566D01*
X90748989Y-34170422D01*
X90699810Y-34122439D01*
X90661524Y-34085841D01*
X90636334Y-34062854D01*
X90626442Y-34055703D01*
X90626253Y-34063732D01*
X90497067Y-34063732D01*
X90495390Y-34051089D01*
X90220297Y-34051089D01*
X90220140Y-33950495D01*
X90320891Y-33950495D01*
X90402624Y-33950495D01*
X90409895Y-33950489D01*
X90450950Y-33949613D01*
X90473277Y-33945867D01*
X90482529Y-33937270D01*
X90484357Y-33921840D01*
X90476306Y-33899159D01*
X90448730Y-33861428D01*
X90402624Y-33812179D01*
X90320891Y-33731172D01*
X90320891Y-33950495D01*
X90220140Y-33950495D01*
X90219968Y-33840471D01*
X90219639Y-33629852D01*
X89767914Y-33170891D01*
X89316189Y-32711931D01*
X89315570Y-32624848D01*
X89314951Y-32537767D01*
X89856769Y-33086952D01*
X89909137Y-33139998D01*
X90017803Y-33249772D01*
X90110709Y-33343114D01*
X90189055Y-33421173D01*
X90254043Y-33485097D01*
X90306872Y-33536035D01*
X90348743Y-33575135D01*
X90380855Y-33603548D01*
X90404410Y-33622420D01*
X90420608Y-33632901D01*
X90430649Y-33636139D01*
X90447579Y-33635158D01*
X90457084Y-33627996D01*
X90458723Y-33608401D01*
X90454782Y-33570124D01*
X90452065Y-33546025D01*
X90448284Y-33505744D01*
X90446760Y-33478961D01*
X90446015Y-33469728D01*
X90438746Y-33459839D01*
X90418668Y-33456562D01*
X90379689Y-33457992D01*
X90369737Y-33458553D01*
X90329898Y-33457921D01*
X90301560Y-33449167D01*
X90281586Y-33434951D01*
X90564852Y-33434951D01*
X90569013Y-33482104D01*
X90570935Y-33503498D01*
X90576924Y-33561909D01*
X90582826Y-33600381D01*
X90589727Y-33622912D01*
X90598712Y-33633498D01*
X90610870Y-33636139D01*
X90621801Y-33637937D01*
X90629050Y-33646530D01*
X90633100Y-33666505D01*
X90634863Y-33702450D01*
X90635248Y-33758952D01*
X90635248Y-33881766D01*
X90675447Y-33921840D01*
X90773565Y-34019654D01*
X90911881Y-34157542D01*
X90911881Y-34051089D01*
X91666337Y-34051089D01*
X91666337Y-34290000D01*
X91047831Y-34290000D01*
X91257592Y-34506906D01*
X91297770Y-34548334D01*
X91353328Y-34605200D01*
X91401570Y-34654082D01*
X91439971Y-34692441D01*
X91466003Y-34717741D01*
X91477140Y-34727442D01*
X91481373Y-34724767D01*
X91501224Y-34706782D01*
X91535451Y-34673481D01*
X91582227Y-34626712D01*
X91639724Y-34568325D01*
X91706112Y-34500169D01*
X91779564Y-34424094D01*
X91858251Y-34341950D01*
X91937341Y-34258943D01*
X92014871Y-34177136D01*
X92077746Y-34110083D01*
X92127502Y-34056007D01*
X92165678Y-34013129D01*
X92193811Y-33979673D01*
X92213440Y-33953861D01*
X92226101Y-33933914D01*
X92233334Y-33918056D01*
X92236675Y-33904509D01*
X92237561Y-33897910D01*
X92241488Y-33861548D01*
X92246459Y-33808018D01*
X92251927Y-33743421D01*
X92257344Y-33673862D01*
X92259181Y-33649635D01*
X92264488Y-33584178D01*
X92269548Y-33527717D01*
X92273863Y-33485618D01*
X92276934Y-33463243D01*
X92282955Y-33434951D01*
X90564852Y-33434951D01*
X90281586Y-33434951D01*
X90273630Y-33429289D01*
X90268820Y-33425104D01*
X90229482Y-33374427D01*
X90213903Y-33321782D01*
X90554698Y-33321782D01*
X91969221Y-33321782D01*
X92181881Y-33321782D01*
X92238908Y-33321782D01*
X92255993Y-33321662D01*
X92281308Y-33319462D01*
X92288616Y-33312334D01*
X92282943Y-33297508D01*
X92281267Y-33294682D01*
X92262448Y-33272944D01*
X92235183Y-33248820D01*
X92207987Y-33229254D01*
X92189371Y-33221188D01*
X92187697Y-33222463D01*
X92183544Y-33239976D01*
X92181881Y-33271485D01*
X92181881Y-33321782D01*
X91969221Y-33321782D01*
X91965526Y-33231095D01*
X91961832Y-33140407D01*
X91886386Y-33125252D01*
X91848551Y-33118379D01*
X91785368Y-33108756D01*
X91726065Y-33101496D01*
X91641188Y-33092893D01*
X91641188Y-33196040D01*
X91062773Y-33196040D01*
X91062773Y-33105122D01*
X90990471Y-33113753D01*
X90879998Y-33132249D01*
X90768816Y-33165691D01*
X90676850Y-33212324D01*
X90602542Y-33272786D01*
X90554698Y-33321782D01*
X90213903Y-33321782D01*
X90212172Y-33315934D01*
X90217474Y-33254575D01*
X90245975Y-33195297D01*
X90248733Y-33191606D01*
X90286822Y-33159851D01*
X90336476Y-33141067D01*
X90390002Y-33136071D01*
X90439707Y-33145678D01*
X90477900Y-33170704D01*
X90490831Y-33183480D01*
X90503428Y-33186576D01*
X90521467Y-33176998D01*
X90551928Y-33153082D01*
X90561274Y-33145731D01*
X90633430Y-33099339D01*
X90718915Y-33058084D01*
X90788830Y-33032575D01*
X91163367Y-33032575D01*
X91163367Y-33095446D01*
X91540594Y-33095446D01*
X91540594Y-33032575D01*
X91163367Y-33032575D01*
X90788830Y-33032575D01*
X90809767Y-33024936D01*
X90898027Y-33002868D01*
X90975736Y-32994852D01*
X90983991Y-32994788D01*
X91029879Y-32990321D01*
X91055079Y-32977795D01*
X91062773Y-32955784D01*
X91063676Y-32948849D01*
X91068615Y-32942885D01*
X91080611Y-32938519D01*
X91102680Y-32935503D01*
X91137836Y-32933590D01*
X91189094Y-32932530D01*
X91259471Y-32932077D01*
X91351980Y-32931980D01*
X91438660Y-32932150D01*
X91512332Y-32932834D01*
X91566265Y-32934215D01*
X91603288Y-32936470D01*
X91626230Y-32939778D01*
X91637920Y-32944320D01*
X91641188Y-32950272D01*
X91651937Y-32964888D01*
X91682055Y-32974215D01*
X91693582Y-32975847D01*
X91732886Y-32981591D01*
X91785188Y-32989378D01*
X91842376Y-32998003D01*
X91873916Y-33002393D01*
X91920074Y-33007148D01*
X91952641Y-33008295D01*
X91966023Y-33005495D01*
X91968308Y-33003671D01*
X91989405Y-32999165D01*
X92027355Y-32996029D01*
X92076048Y-32994852D01*
X92181881Y-32994852D01*
X92181894Y-33032575D01*
X92181894Y-33035718D01*
X92182388Y-33048668D01*
X92188819Y-33070411D01*
X92207123Y-33088851D01*
X92242830Y-33110801D01*
X92274174Y-33130854D01*
X92321893Y-33169356D01*
X92365138Y-33212579D01*
X92398219Y-33254627D01*
X92415442Y-33289604D01*
X92419662Y-33303081D01*
X92427480Y-33312334D01*
X92430116Y-33315454D01*
X92451662Y-33320696D01*
G37*
D12*
X92451662Y-33320696D02*
X92491314Y-33321782D01*
X92559109Y-33321782D01*
X92559109Y-33434951D01*
X92399577Y-33434951D01*
X92384682Y-33612732D01*
X92382682Y-33637037D01*
X92378023Y-33697880D01*
X92374731Y-33747389D01*
X92373092Y-33780992D01*
X92373390Y-33794116D01*
X92377724Y-33790343D01*
X92397496Y-33770676D01*
X92431679Y-33735818D01*
X92478541Y-33687576D01*
X92536354Y-33627757D01*
X92603387Y-33558167D01*
X92677912Y-33480615D01*
X92758197Y-33396907D01*
X92842513Y-33308849D01*
X92929130Y-33218250D01*
X93016319Y-33126915D01*
X93102349Y-33036653D01*
X93185492Y-32949269D01*
X93264016Y-32866572D01*
X93336192Y-32790368D01*
X93400291Y-32722463D01*
X93454583Y-32664666D01*
X93551592Y-32561040D01*
X93552034Y-32649315D01*
X93552475Y-32737589D01*
X92951938Y-33369158D01*
X92351401Y-34000726D01*
X92339396Y-34144674D01*
X92291365Y-34720635D01*
X92282876Y-34822791D01*
X92272343Y-34950612D01*
X92262621Y-35069767D01*
X92253898Y-35177914D01*
X92246358Y-35272713D01*
X92240187Y-35351819D01*
X92235573Y-35412892D01*
X92232700Y-35453590D01*
X92231754Y-35471570D01*
X92234251Y-35479808D01*
X92245471Y-35497599D01*
X92266751Y-35524411D01*
X92277021Y-35536129D01*
X92299225Y-35561466D01*
X92344023Y-35609986D01*
X92402281Y-35671192D01*
X92475129Y-35746307D01*
X92563703Y-35836550D01*
X92669134Y-35943145D01*
X92738492Y-36013093D01*
X92835179Y-36110658D01*
X92931526Y-36207941D01*
X93024638Y-36302014D01*
X93111618Y-36389950D01*
X93189569Y-36468820D01*
X93255596Y-36535699D01*
X93306802Y-36587658D01*
X93507514Y-36791620D01*
X93471058Y-36829671D01*
X93462460Y-36838245D01*
X93437095Y-36859297D01*
X93419695Y-36867723D01*
X93406071Y-36860530D01*
X93380743Y-36838944D01*
X93350379Y-36807995D01*
X93331896Y-36788448D01*
X93297427Y-36752752D01*
X93248712Y-36702684D01*
X93187469Y-36640001D01*
X93115420Y-36566457D01*
X93034285Y-36483810D01*
X92945784Y-36393815D01*
X92851637Y-36298228D01*
X92753565Y-36198805D01*
X92211161Y-35649343D01*
X92189066Y-35934746D01*
X92184250Y-35995662D01*
X92177216Y-36077548D01*
X92170872Y-36139569D01*
X92164748Y-36184987D01*
X92158373Y-36217062D01*
X92151277Y-36239052D01*
X92142991Y-36254219D01*
X92131393Y-36275416D01*
X92121850Y-36314386D01*
X92119010Y-36370531D01*
X92119010Y-36452773D01*
X91892674Y-36452773D01*
X91892674Y-36276733D01*
X91047082Y-36276733D01*
X90998203Y-36332262D01*
X90984836Y-36346722D01*
X90912388Y-36404813D01*
X90830532Y-36440576D01*
X90741900Y-36452773D01*
X90663692Y-36446306D01*
X90575233Y-36419047D01*
X90499507Y-36370328D01*
X90484748Y-36356403D01*
X90447864Y-36311328D01*
X90415503Y-36258819D01*
X90392297Y-36207061D01*
X90382879Y-36164239D01*
X90382697Y-36158023D01*
X90381342Y-36135246D01*
X90377800Y-36119513D01*
X90370390Y-36112068D01*
X90357431Y-36114156D01*
X90337243Y-36127020D01*
X90308145Y-36151905D01*
X90268456Y-36190053D01*
X90216496Y-36242710D01*
X90150584Y-36311119D01*
X90069040Y-36396524D01*
X90025604Y-36442112D01*
X89953000Y-36518441D01*
X89884309Y-36590808D01*
X89822223Y-36656366D01*
X89769434Y-36712274D01*
X89728634Y-36755686D01*
X89702515Y-36783758D01*
X89631119Y-36861436D01*
X89542863Y-36773416D01*
X90088690Y-36201287D01*
X90123105Y-36165188D01*
X90245546Y-36036272D01*
X90350651Y-35924754D01*
X90438736Y-35830288D01*
X90510116Y-35752529D01*
X90560588Y-35696174D01*
X90767247Y-35696174D01*
X90768872Y-35709434D01*
X90769156Y-35710819D01*
X90782698Y-35742228D01*
X90809748Y-35756863D01*
X90893129Y-35788063D01*
X90967418Y-35840038D01*
X91025846Y-35908791D01*
X91065890Y-35991315D01*
X91085026Y-36084606D01*
X91091364Y-36163565D01*
X92040838Y-36163565D01*
X92047458Y-36135273D01*
X92048629Y-36128329D01*
X92052268Y-36097281D01*
X92057234Y-36047081D01*
X92063157Y-35981727D01*
X92069669Y-35905219D01*
X92076401Y-35821555D01*
X92098724Y-35536129D01*
X91797826Y-35230565D01*
X91742636Y-35174704D01*
X91675109Y-35106888D01*
X91614529Y-35046643D01*
X91563021Y-34996052D01*
X91522710Y-34957200D01*
X91495722Y-34932170D01*
X91484182Y-34923046D01*
X91476444Y-34927405D01*
X91453395Y-34947241D01*
X91418709Y-34980375D01*
X91375487Y-35023820D01*
X91326832Y-35074587D01*
X91314140Y-35088051D01*
X91257229Y-35148275D01*
X91189414Y-35219864D01*
X91115800Y-35297437D01*
X91041493Y-35375611D01*
X90971599Y-35449005D01*
X90967401Y-35453409D01*
X90902420Y-35521785D01*
X90852836Y-35574732D01*
X90816688Y-35614767D01*
X90792016Y-35644411D01*
X90776858Y-35666181D01*
X90769256Y-35682595D01*
X90767247Y-35696174D01*
X90560588Y-35696174D01*
X90565105Y-35691131D01*
X90604019Y-35645748D01*
X90627173Y-35616035D01*
X90634882Y-35601644D01*
X90634883Y-35601559D01*
X90633825Y-35583624D01*
X90630737Y-35543421D01*
X90625858Y-35483687D01*
X90619432Y-35407158D01*
X90611700Y-35316569D01*
X90602905Y-35214657D01*
X90593287Y-35104159D01*
X90583091Y-34987811D01*
X90572556Y-34868348D01*
X90561926Y-34748507D01*
X90551442Y-34631025D01*
X90541346Y-34518637D01*
X90531881Y-34414081D01*
X90523288Y-34320091D01*
X90515809Y-34239405D01*
X90509687Y-34174759D01*
X90505162Y-34128888D01*
X90502478Y-34104530D01*
X90497067Y-34063732D01*
X90626253Y-34063732D01*
X90627908Y-34094653D01*
X90631549Y-34146653D01*
X90636995Y-34217487D01*
X90644063Y-34304911D01*
X90652570Y-34406681D01*
X90662335Y-34520552D01*
X90673174Y-34644279D01*
X90684907Y-34775618D01*
X90694079Y-34876908D01*
X90705566Y-35002526D01*
X90716322Y-35118762D01*
X90726131Y-35223380D01*
X90734781Y-35314140D01*
X90742057Y-35388804D01*
X90747746Y-35445134D01*
X90751634Y-35480891D01*
X90753506Y-35493837D01*
X90759188Y-35489826D01*
X90780020Y-35470138D01*
X90813872Y-35436322D01*
X90858412Y-35390837D01*
X90911310Y-35336146D01*
X90970236Y-35274710D01*
X91032858Y-35208990D01*
X91096848Y-35141449D01*
X91159874Y-35074547D01*
X91219606Y-35010746D01*
X91273713Y-34952507D01*
X91319865Y-34902292D01*
X91355733Y-34862563D01*
X91378984Y-34835780D01*
X91385778Y-34826477D01*
X91567601Y-34826477D01*
X91843305Y-35101968D01*
X91910726Y-35169224D01*
X91974267Y-35232162D01*
X92023490Y-35280100D01*
X92060196Y-35314594D01*
X92086190Y-35337199D01*
X92103276Y-35349471D01*
X92113256Y-35352966D01*
X92117935Y-35349238D01*
X92119116Y-35339844D01*
X92119873Y-35324749D01*
X92122601Y-35285883D01*
X92127108Y-35226895D01*
X92133179Y-35150473D01*
X92140596Y-35059305D01*
X92149142Y-34956080D01*
X92158602Y-34843483D01*
X92168758Y-34724205D01*
X92177723Y-34619077D01*
X92187066Y-34508351D01*
X92195443Y-34407814D01*
X92202653Y-34319943D01*
X92208496Y-34247215D01*
X92212769Y-34192110D01*
X92215273Y-34157104D01*
X92215805Y-34144674D01*
X92215384Y-34144908D01*
X92203509Y-34156350D01*
X92177130Y-34183198D01*
X92138570Y-34223018D01*
X92090153Y-34273372D01*
X92034203Y-34331828D01*
X91973042Y-34395948D01*
X91908995Y-34463298D01*
X91844385Y-34531443D01*
X91781535Y-34597948D01*
X91722768Y-34660377D01*
X91670409Y-34716295D01*
X91569533Y-34824406D01*
X91567601Y-34826477D01*
X91385778Y-34826477D01*
X91387290Y-34824406D01*
X91379148Y-34813383D01*
X91355478Y-34786999D01*
X91318478Y-34747527D01*
X91270350Y-34697191D01*
X91213296Y-34638217D01*
X91149520Y-34572830D01*
X91081222Y-34503255D01*
X91010605Y-34431716D01*
X90939871Y-34360438D01*
X90871222Y-34291647D01*
X90806861Y-34227566D01*
X90748989Y-34170422D01*
X90699810Y-34122439D01*
X90661524Y-34085841D01*
X90636334Y-34062854D01*
X90626442Y-34055703D01*
X90626253Y-34063732D01*
X90497067Y-34063732D01*
X90495390Y-34051089D01*
X90220297Y-34051089D01*
X90220140Y-33950495D01*
X90320891Y-33950495D01*
X90402624Y-33950495D01*
X90409895Y-33950489D01*
X90450950Y-33949613D01*
X90473277Y-33945867D01*
X90482529Y-33937270D01*
X90484357Y-33921840D01*
X90476306Y-33899159D01*
X90448730Y-33861428D01*
X90402624Y-33812179D01*
X90320891Y-33731172D01*
X90320891Y-33950495D01*
X90220140Y-33950495D01*
X90219968Y-33840471D01*
X90219639Y-33629852D01*
X89767914Y-33170891D01*
X89316189Y-32711931D01*
X89315570Y-32624848D01*
X89314951Y-32537767D01*
X89856769Y-33086952D01*
X89909137Y-33139998D01*
X90017803Y-33249772D01*
X90110709Y-33343114D01*
X90189055Y-33421173D01*
X90254043Y-33485097D01*
X90306872Y-33536035D01*
X90348743Y-33575135D01*
X90380855Y-33603548D01*
X90404410Y-33622420D01*
X90420608Y-33632901D01*
X90430649Y-33636139D01*
X90447579Y-33635158D01*
X90457084Y-33627996D01*
X90458723Y-33608401D01*
X90454782Y-33570124D01*
X90452065Y-33546025D01*
X90448284Y-33505744D01*
X90446760Y-33478961D01*
X90446015Y-33469728D01*
X90438746Y-33459839D01*
X90418668Y-33456562D01*
X90379689Y-33457992D01*
X90369737Y-33458553D01*
X90329898Y-33457921D01*
X90301560Y-33449167D01*
X90281586Y-33434951D01*
X90564852Y-33434951D01*
X90569013Y-33482104D01*
X90570935Y-33503498D01*
X90576924Y-33561909D01*
X90582826Y-33600381D01*
X90589727Y-33622912D01*
X90598712Y-33633498D01*
X90610870Y-33636139D01*
X90621801Y-33637937D01*
X90629050Y-33646530D01*
X90633100Y-33666505D01*
X90634863Y-33702450D01*
X90635248Y-33758952D01*
X90635248Y-33881766D01*
X90675447Y-33921840D01*
X90773565Y-34019654D01*
X90911881Y-34157542D01*
X90911881Y-34051089D01*
X91666337Y-34051089D01*
X91666337Y-34290000D01*
X91047831Y-34290000D01*
X91257592Y-34506906D01*
X91297770Y-34548334D01*
X91353328Y-34605200D01*
X91401570Y-34654082D01*
X91439971Y-34692441D01*
X91466003Y-34717741D01*
X91477140Y-34727442D01*
X91481373Y-34724767D01*
X91501224Y-34706782D01*
X91535451Y-34673481D01*
X91582227Y-34626712D01*
X91639724Y-34568325D01*
X91706112Y-34500169D01*
X91779564Y-34424094D01*
X91858251Y-34341950D01*
X91937341Y-34258943D01*
X92014871Y-34177136D01*
X92077746Y-34110083D01*
X92127502Y-34056007D01*
X92165678Y-34013129D01*
X92193811Y-33979673D01*
X92213440Y-33953861D01*
X92226101Y-33933914D01*
X92233334Y-33918056D01*
X92236675Y-33904509D01*
X92237561Y-33897910D01*
X92241488Y-33861548D01*
X92246459Y-33808018D01*
X92251927Y-33743421D01*
X92257344Y-33673862D01*
X92259181Y-33649635D01*
X92264488Y-33584178D01*
X92269548Y-33527717D01*
X92273863Y-33485618D01*
X92276934Y-33463243D01*
X92282955Y-33434951D01*
X90564852Y-33434951D01*
X90281586Y-33434951D01*
X90273630Y-33429289D01*
X90268820Y-33425104D01*
X90229482Y-33374427D01*
X90213903Y-33321782D01*
X90554698Y-33321782D01*
X91969221Y-33321782D01*
X92181881Y-33321782D01*
X92238908Y-33321782D01*
X92255993Y-33321662D01*
X92281308Y-33319462D01*
X92288616Y-33312334D01*
X92282943Y-33297508D01*
X92281267Y-33294682D01*
X92262448Y-33272944D01*
X92235183Y-33248820D01*
X92207987Y-33229254D01*
X92189371Y-33221188D01*
X92187697Y-33222463D01*
X92183544Y-33239976D01*
X92181881Y-33271485D01*
X92181881Y-33321782D01*
X91969221Y-33321782D01*
X91965526Y-33231095D01*
X91961832Y-33140407D01*
X91886386Y-33125252D01*
X91848551Y-33118379D01*
X91785368Y-33108756D01*
X91726065Y-33101496D01*
X91641188Y-33092893D01*
X91641188Y-33196040D01*
X91062773Y-33196040D01*
X91062773Y-33105122D01*
X90990471Y-33113753D01*
X90879998Y-33132249D01*
X90768816Y-33165691D01*
X90676850Y-33212324D01*
X90602542Y-33272786D01*
X90554698Y-33321782D01*
X90213903Y-33321782D01*
X90212172Y-33315934D01*
X90217474Y-33254575D01*
X90245975Y-33195297D01*
X90248733Y-33191606D01*
X90286822Y-33159851D01*
X90336476Y-33141067D01*
X90390002Y-33136071D01*
X90439707Y-33145678D01*
X90477900Y-33170704D01*
X90490831Y-33183480D01*
X90503428Y-33186576D01*
X90521467Y-33176998D01*
X90551928Y-33153082D01*
X90561274Y-33145731D01*
X90633430Y-33099339D01*
X90718915Y-33058084D01*
X90788830Y-33032575D01*
X91163367Y-33032575D01*
X91163367Y-33095446D01*
X91540594Y-33095446D01*
X91540594Y-33032575D01*
X91163367Y-33032575D01*
X90788830Y-33032575D01*
X90809767Y-33024936D01*
X90898027Y-33002868D01*
X90975736Y-32994852D01*
X90983991Y-32994788D01*
X91029879Y-32990321D01*
X91055079Y-32977795D01*
X91062773Y-32955784D01*
X91063676Y-32948849D01*
X91068615Y-32942885D01*
X91080611Y-32938519D01*
X91102680Y-32935503D01*
X91137836Y-32933590D01*
X91189094Y-32932530D01*
X91259471Y-32932077D01*
X91351980Y-32931980D01*
X91438660Y-32932150D01*
X91512332Y-32932834D01*
X91566265Y-32934215D01*
X91603288Y-32936470D01*
X91626230Y-32939778D01*
X91637920Y-32944320D01*
X91641188Y-32950272D01*
X91651937Y-32964888D01*
X91682055Y-32974215D01*
X91693582Y-32975847D01*
X91732886Y-32981591D01*
X91785188Y-32989378D01*
X91842376Y-32998003D01*
X91873916Y-33002393D01*
X91920074Y-33007148D01*
X91952641Y-33008295D01*
X91966023Y-33005495D01*
X91968308Y-33003671D01*
X91989405Y-32999165D01*
X92027355Y-32996029D01*
X92076048Y-32994852D01*
X92181881Y-32994852D01*
X92181894Y-33032575D01*
X92181894Y-33035718D01*
X92182388Y-33048668D01*
X92188819Y-33070411D01*
X92207123Y-33088851D01*
X92242830Y-33110801D01*
X92274174Y-33130854D01*
X92321893Y-33169356D01*
X92365138Y-33212579D01*
X92398219Y-33254627D01*
X92415442Y-33289604D01*
X92419662Y-33303081D01*
X92427480Y-33312334D01*
X92430116Y-33315454D01*
X92451662Y-33320696D01*
G36*
X93212971Y-38577822D02*
G01*
X89692178Y-38577822D01*
X89692178Y-37710198D01*
X93212971Y-37710198D01*
X93212971Y-38577822D01*
G37*
X93212971Y-38577822D02*
X89692178Y-38577822D01*
X89692178Y-37710198D01*
X93212971Y-37710198D01*
X93212971Y-38577822D01*
G04 #@! TD*
M02*
