G04 #@! TF.GenerationSoftware,KiCad,Pcbnew,6.0.9-8da3e8f707~116~ubuntu20.04.1*
G04 #@! TF.CreationDate,2023-03-26T17:56:32+00:00*
G04 #@! TF.ProjectId,LEC011001,4c454330-3131-4303-9031-2e6b69636164,rev?*
G04 #@! TF.SameCoordinates,Original*
G04 #@! TF.FileFunction,Legend,Top*
G04 #@! TF.FilePolarity,Positive*
%FSLAX46Y46*%
G04 Gerber Fmt 4.6, Leading zero omitted, Abs format (unit mm)*
G04 Created by KiCad (PCBNEW 6.0.9-8da3e8f707~116~ubuntu20.04.1) date 2023-03-26 17:56:32*
%MOMM*%
%LPD*%
G01*
G04 APERTURE LIST*
%ADD10C,0.120000*%
%ADD11C,0.400000*%
%ADD12C,0.200000*%
%ADD13C,0.150000*%
%ADD14C,0.010000*%
%ADD15C,0.100000*%
G04 APERTURE END LIST*
D10*
X121700000Y-50800000D02*
X111540000Y-50800000D01*
D11*
X92910000Y-57785000D02*
G75*
G03*
X92910000Y-57785000I-200000J0D01*
G01*
D12*
X96520000Y-57785000D02*
X95250000Y-57785000D01*
D10*
X121700000Y-55880000D02*
X121700000Y-50800000D01*
D12*
X92710000Y-57785000D02*
X95250000Y-59055000D01*
X96520000Y-55245000D02*
X96520000Y-57785000D01*
D10*
X111540000Y-55880000D02*
X121700000Y-55880000D01*
D11*
X95450000Y-57785000D02*
G75*
G03*
X95450000Y-57785000I-200000J0D01*
G01*
D12*
X91440000Y-55245000D02*
X91440000Y-57785000D01*
D10*
X111540000Y-50800000D02*
X111540000Y-55880000D01*
D12*
X91440000Y-57785000D02*
X92710000Y-57785000D01*
X144271904Y-28614619D02*
X143700476Y-28614619D01*
X143986190Y-27614619D02*
X143986190Y-28614619D01*
X142843333Y-27614619D02*
X143414761Y-27614619D01*
X143129047Y-27614619D02*
X143129047Y-28614619D01*
X143224285Y-28471761D01*
X143319523Y-28376523D01*
X143414761Y-28328904D01*
X133516666Y-27709857D02*
X133564285Y-27662238D01*
X133707142Y-27614619D01*
X133802380Y-27614619D01*
X133945238Y-27662238D01*
X134040476Y-27757476D01*
X134088095Y-27852714D01*
X134135714Y-28043190D01*
X134135714Y-28186047D01*
X134088095Y-28376523D01*
X134040476Y-28471761D01*
X133945238Y-28567000D01*
X133802380Y-28614619D01*
X133707142Y-28614619D01*
X133564285Y-28567000D01*
X133516666Y-28519380D01*
X132564285Y-27614619D02*
X133135714Y-27614619D01*
X132850000Y-27614619D02*
X132850000Y-28614619D01*
X132945238Y-28471761D01*
X133040476Y-28376523D01*
X133135714Y-28328904D01*
X138596666Y-27614619D02*
X138930000Y-28090809D01*
X139168095Y-27614619D02*
X139168095Y-28614619D01*
X138787142Y-28614619D01*
X138691904Y-28567000D01*
X138644285Y-28519380D01*
X138596666Y-28424142D01*
X138596666Y-28281285D01*
X138644285Y-28186047D01*
X138691904Y-28138428D01*
X138787142Y-28090809D01*
X139168095Y-28090809D01*
X137644285Y-27614619D02*
X138215714Y-27614619D01*
X137930000Y-27614619D02*
X137930000Y-28614619D01*
X138025238Y-28471761D01*
X138120476Y-28376523D01*
X138215714Y-28328904D01*
X142748095Y-57745380D02*
X143319523Y-57745380D01*
X143033809Y-58745380D02*
X143033809Y-57745380D01*
X143605238Y-57840619D02*
X143652857Y-57793000D01*
X143748095Y-57745380D01*
X143986190Y-57745380D01*
X144081428Y-57793000D01*
X144129047Y-57840619D01*
X144176666Y-57935857D01*
X144176666Y-58031095D01*
X144129047Y-58173952D01*
X143557619Y-58745380D01*
X144176666Y-58745380D01*
X138263333Y-58745380D02*
X137930000Y-58269190D01*
X137691904Y-58745380D02*
X137691904Y-57745380D01*
X138072857Y-57745380D01*
X138168095Y-57793000D01*
X138215714Y-57840619D01*
X138263333Y-57935857D01*
X138263333Y-58078714D01*
X138215714Y-58173952D01*
X138168095Y-58221571D01*
X138072857Y-58269190D01*
X137691904Y-58269190D01*
X138644285Y-57840619D02*
X138691904Y-57793000D01*
X138787142Y-57745380D01*
X139025238Y-57745380D01*
X139120476Y-57793000D01*
X139168095Y-57840619D01*
X139215714Y-57935857D01*
X139215714Y-58031095D01*
X139168095Y-58173952D01*
X138596666Y-58745380D01*
X139215714Y-58745380D01*
X78414619Y-41846666D02*
X79414619Y-41846666D01*
X79414619Y-42227619D01*
X79367000Y-42322857D01*
X79319380Y-42370476D01*
X79224142Y-42418095D01*
X79081285Y-42418095D01*
X78986047Y-42370476D01*
X78938428Y-42322857D01*
X78890809Y-42227619D01*
X78890809Y-41846666D01*
X79414619Y-42751428D02*
X78414619Y-42989523D01*
X79128904Y-43180000D01*
X78414619Y-43370476D01*
X79414619Y-43608571D01*
X78414619Y-44560952D02*
X78890809Y-44227619D01*
X78414619Y-43989523D02*
X79414619Y-43989523D01*
X79414619Y-44370476D01*
X79367000Y-44465714D01*
X79319380Y-44513333D01*
X79224142Y-44560952D01*
X79081285Y-44560952D01*
X78986047Y-44513333D01*
X78938428Y-44465714D01*
X78890809Y-44370476D01*
X78890809Y-43989523D01*
X133183333Y-58650142D02*
X133135714Y-58697761D01*
X132992857Y-58745380D01*
X132897619Y-58745380D01*
X132754761Y-58697761D01*
X132659523Y-58602523D01*
X132611904Y-58507285D01*
X132564285Y-58316809D01*
X132564285Y-58173952D01*
X132611904Y-57983476D01*
X132659523Y-57888238D01*
X132754761Y-57793000D01*
X132897619Y-57745380D01*
X132992857Y-57745380D01*
X133135714Y-57793000D01*
X133183333Y-57840619D01*
X133564285Y-57840619D02*
X133611904Y-57793000D01*
X133707142Y-57745380D01*
X133945238Y-57745380D01*
X134040476Y-57793000D01*
X134088095Y-57840619D01*
X134135714Y-57935857D01*
X134135714Y-58031095D01*
X134088095Y-58173952D01*
X133516666Y-58745380D01*
X134135714Y-58745380D01*
D13*
X113120000Y-55062380D02*
X112643809Y-55062380D01*
X112643809Y-54062380D01*
X113453333Y-54538571D02*
X113786666Y-54538571D01*
X113929523Y-55062380D02*
X113453333Y-55062380D01*
X113453333Y-54062380D01*
X113929523Y-54062380D01*
X114929523Y-54967142D02*
X114881904Y-55014761D01*
X114739047Y-55062380D01*
X114643809Y-55062380D01*
X114500952Y-55014761D01*
X114405714Y-54919523D01*
X114358095Y-54824285D01*
X114310476Y-54633809D01*
X114310476Y-54490952D01*
X114358095Y-54300476D01*
X114405714Y-54205238D01*
X114500952Y-54110000D01*
X114643809Y-54062380D01*
X114739047Y-54062380D01*
X114881904Y-54110000D01*
X114929523Y-54157619D01*
X115548571Y-54062380D02*
X115643809Y-54062380D01*
X115739047Y-54110000D01*
X115786666Y-54157619D01*
X115834285Y-54252857D01*
X115881904Y-54443333D01*
X115881904Y-54681428D01*
X115834285Y-54871904D01*
X115786666Y-54967142D01*
X115739047Y-55014761D01*
X115643809Y-55062380D01*
X115548571Y-55062380D01*
X115453333Y-55014761D01*
X115405714Y-54967142D01*
X115358095Y-54871904D01*
X115310476Y-54681428D01*
X115310476Y-54443333D01*
X115358095Y-54252857D01*
X115405714Y-54157619D01*
X115453333Y-54110000D01*
X115548571Y-54062380D01*
X116834285Y-55062380D02*
X116262857Y-55062380D01*
X116548571Y-55062380D02*
X116548571Y-54062380D01*
X116453333Y-54205238D01*
X116358095Y-54300476D01*
X116262857Y-54348095D01*
X117786666Y-55062380D02*
X117215238Y-55062380D01*
X117500952Y-55062380D02*
X117500952Y-54062380D01*
X117405714Y-54205238D01*
X117310476Y-54300476D01*
X117215238Y-54348095D01*
X118405714Y-54062380D02*
X118500952Y-54062380D01*
X118596190Y-54110000D01*
X118643809Y-54157619D01*
X118691428Y-54252857D01*
X118739047Y-54443333D01*
X118739047Y-54681428D01*
X118691428Y-54871904D01*
X118643809Y-54967142D01*
X118596190Y-55014761D01*
X118500952Y-55062380D01*
X118405714Y-55062380D01*
X118310476Y-55014761D01*
X118262857Y-54967142D01*
X118215238Y-54871904D01*
X118167619Y-54681428D01*
X118167619Y-54443333D01*
X118215238Y-54252857D01*
X118262857Y-54157619D01*
X118310476Y-54110000D01*
X118405714Y-54062380D01*
X119358095Y-54062380D02*
X119453333Y-54062380D01*
X119548571Y-54110000D01*
X119596190Y-54157619D01*
X119643809Y-54252857D01*
X119691428Y-54443333D01*
X119691428Y-54681428D01*
X119643809Y-54871904D01*
X119596190Y-54967142D01*
X119548571Y-55014761D01*
X119453333Y-55062380D01*
X119358095Y-55062380D01*
X119262857Y-55014761D01*
X119215238Y-54967142D01*
X119167619Y-54871904D01*
X119120000Y-54681428D01*
X119120000Y-54443333D01*
X119167619Y-54252857D01*
X119215238Y-54157619D01*
X119262857Y-54110000D01*
X119358095Y-54062380D01*
X120643809Y-55062380D02*
X120072380Y-55062380D01*
X120358095Y-55062380D02*
X120358095Y-54062380D01*
X120262857Y-54205238D01*
X120167619Y-54300476D01*
X120072380Y-54348095D01*
G04 #@! TO.C,C1*
X96353333Y-30837142D02*
X96305714Y-30884761D01*
X96162857Y-30932380D01*
X96067619Y-30932380D01*
X95924761Y-30884761D01*
X95829523Y-30789523D01*
X95781904Y-30694285D01*
X95734285Y-30503809D01*
X95734285Y-30360952D01*
X95781904Y-30170476D01*
X95829523Y-30075238D01*
X95924761Y-29980000D01*
X96067619Y-29932380D01*
X96162857Y-29932380D01*
X96305714Y-29980000D01*
X96353333Y-30027619D01*
X97305714Y-30932380D02*
X96734285Y-30932380D01*
X97020000Y-30932380D02*
X97020000Y-29932380D01*
X96924761Y-30075238D01*
X96829523Y-30170476D01*
X96734285Y-30218095D01*
G04 #@! TO.C,C2*
X95083333Y-39727142D02*
X95035714Y-39774761D01*
X94892857Y-39822380D01*
X94797619Y-39822380D01*
X94654761Y-39774761D01*
X94559523Y-39679523D01*
X94511904Y-39584285D01*
X94464285Y-39393809D01*
X94464285Y-39250952D01*
X94511904Y-39060476D01*
X94559523Y-38965238D01*
X94654761Y-38870000D01*
X94797619Y-38822380D01*
X94892857Y-38822380D01*
X95035714Y-38870000D01*
X95083333Y-38917619D01*
X95464285Y-38917619D02*
X95511904Y-38870000D01*
X95607142Y-38822380D01*
X95845238Y-38822380D01*
X95940476Y-38870000D01*
X95988095Y-38917619D01*
X96035714Y-39012857D01*
X96035714Y-39108095D01*
X95988095Y-39250952D01*
X95416666Y-39822380D01*
X96035714Y-39822380D01*
G04 #@! TO.C,C4*
X107783333Y-40997142D02*
X107735714Y-41044761D01*
X107592857Y-41092380D01*
X107497619Y-41092380D01*
X107354761Y-41044761D01*
X107259523Y-40949523D01*
X107211904Y-40854285D01*
X107164285Y-40663809D01*
X107164285Y-40520952D01*
X107211904Y-40330476D01*
X107259523Y-40235238D01*
X107354761Y-40140000D01*
X107497619Y-40092380D01*
X107592857Y-40092380D01*
X107735714Y-40140000D01*
X107783333Y-40187619D01*
X108640476Y-40425714D02*
X108640476Y-41092380D01*
X108402380Y-40044761D02*
X108164285Y-40759047D01*
X108783333Y-40759047D01*
G04 #@! TO.C,C5*
X117197142Y-31916666D02*
X117244761Y-31964285D01*
X117292380Y-32107142D01*
X117292380Y-32202380D01*
X117244761Y-32345238D01*
X117149523Y-32440476D01*
X117054285Y-32488095D01*
X116863809Y-32535714D01*
X116720952Y-32535714D01*
X116530476Y-32488095D01*
X116435238Y-32440476D01*
X116340000Y-32345238D01*
X116292380Y-32202380D01*
X116292380Y-32107142D01*
X116340000Y-31964285D01*
X116387619Y-31916666D01*
X116292380Y-31011904D02*
X116292380Y-31488095D01*
X116768571Y-31535714D01*
X116720952Y-31488095D01*
X116673333Y-31392857D01*
X116673333Y-31154761D01*
X116720952Y-31059523D01*
X116768571Y-31011904D01*
X116863809Y-30964285D01*
X117101904Y-30964285D01*
X117197142Y-31011904D01*
X117244761Y-31059523D01*
X117292380Y-31154761D01*
X117292380Y-31392857D01*
X117244761Y-31488095D01*
X117197142Y-31535714D01*
G04 #@! TO.C,C7*
X107767142Y-34456666D02*
X107814761Y-34504285D01*
X107862380Y-34647142D01*
X107862380Y-34742380D01*
X107814761Y-34885238D01*
X107719523Y-34980476D01*
X107624285Y-35028095D01*
X107433809Y-35075714D01*
X107290952Y-35075714D01*
X107100476Y-35028095D01*
X107005238Y-34980476D01*
X106910000Y-34885238D01*
X106862380Y-34742380D01*
X106862380Y-34647142D01*
X106910000Y-34504285D01*
X106957619Y-34456666D01*
X106862380Y-34123333D02*
X106862380Y-33456666D01*
X107862380Y-33885238D01*
G04 #@! TO.C,D1*
X96562380Y-45188095D02*
X95562380Y-45188095D01*
X95562380Y-44950000D01*
X95610000Y-44807142D01*
X95705238Y-44711904D01*
X95800476Y-44664285D01*
X95990952Y-44616666D01*
X96133809Y-44616666D01*
X96324285Y-44664285D01*
X96419523Y-44711904D01*
X96514761Y-44807142D01*
X96562380Y-44950000D01*
X96562380Y-45188095D01*
X96562380Y-43664285D02*
X96562380Y-44235714D01*
X96562380Y-43950000D02*
X95562380Y-43950000D01*
X95705238Y-44045238D01*
X95800476Y-44140476D01*
X95848095Y-44235714D01*
G04 #@! TO.C,D2*
X121262380Y-43918095D02*
X120262380Y-43918095D01*
X120262380Y-43680000D01*
X120310000Y-43537142D01*
X120405238Y-43441904D01*
X120500476Y-43394285D01*
X120690952Y-43346666D01*
X120833809Y-43346666D01*
X121024285Y-43394285D01*
X121119523Y-43441904D01*
X121214761Y-43537142D01*
X121262380Y-43680000D01*
X121262380Y-43918095D01*
X120357619Y-42965714D02*
X120310000Y-42918095D01*
X120262380Y-42822857D01*
X120262380Y-42584761D01*
X120310000Y-42489523D01*
X120357619Y-42441904D01*
X120452857Y-42394285D01*
X120548095Y-42394285D01*
X120690952Y-42441904D01*
X121262380Y-43013333D01*
X121262380Y-42394285D01*
G04 #@! TO.C,D3*
X122372380Y-36933095D02*
X121372380Y-36933095D01*
X121372380Y-36695000D01*
X121420000Y-36552142D01*
X121515238Y-36456904D01*
X121610476Y-36409285D01*
X121800952Y-36361666D01*
X121943809Y-36361666D01*
X122134285Y-36409285D01*
X122229523Y-36456904D01*
X122324761Y-36552142D01*
X122372380Y-36695000D01*
X122372380Y-36933095D01*
X121372380Y-36028333D02*
X121372380Y-35409285D01*
X121753333Y-35742619D01*
X121753333Y-35599761D01*
X121800952Y-35504523D01*
X121848571Y-35456904D01*
X121943809Y-35409285D01*
X122181904Y-35409285D01*
X122277142Y-35456904D01*
X122324761Y-35504523D01*
X122372380Y-35599761D01*
X122372380Y-35885476D01*
X122324761Y-35980714D01*
X122277142Y-36028333D01*
G04 #@! TO.C,J1*
X93646666Y-50252380D02*
X93646666Y-50966666D01*
X93599047Y-51109523D01*
X93503809Y-51204761D01*
X93360952Y-51252380D01*
X93265714Y-51252380D01*
X94646666Y-51252380D02*
X94075238Y-51252380D01*
X94360952Y-51252380D02*
X94360952Y-50252380D01*
X94265714Y-50395238D01*
X94170476Y-50490476D01*
X94075238Y-50538095D01*
G04 #@! TO.C,J2*
X85812380Y-43513333D02*
X86526666Y-43513333D01*
X86669523Y-43560952D01*
X86764761Y-43656190D01*
X86812380Y-43799047D01*
X86812380Y-43894285D01*
X85907619Y-43084761D02*
X85860000Y-43037142D01*
X85812380Y-42941904D01*
X85812380Y-42703809D01*
X85860000Y-42608571D01*
X85907619Y-42560952D01*
X86002857Y-42513333D01*
X86098095Y-42513333D01*
X86240952Y-42560952D01*
X86812380Y-43132380D01*
X86812380Y-42513333D01*
G04 #@! TO.C,J3*
X138096666Y-35012380D02*
X138096666Y-35726666D01*
X138049047Y-35869523D01*
X137953809Y-35964761D01*
X137810952Y-36012380D01*
X137715714Y-36012380D01*
X138477619Y-35012380D02*
X139096666Y-35012380D01*
X138763333Y-35393333D01*
X138906190Y-35393333D01*
X139001428Y-35440952D01*
X139049047Y-35488571D01*
X139096666Y-35583809D01*
X139096666Y-35821904D01*
X139049047Y-35917142D01*
X139001428Y-35964761D01*
X138906190Y-36012380D01*
X138620476Y-36012380D01*
X138525238Y-35964761D01*
X138477619Y-35917142D01*
G04 #@! TO.C,J4*
X138066666Y-50252380D02*
X138066666Y-50966666D01*
X138019047Y-51109523D01*
X137923809Y-51204761D01*
X137780952Y-51252380D01*
X137685714Y-51252380D01*
X138971428Y-50585714D02*
X138971428Y-51252380D01*
X138733333Y-50204761D02*
X138495238Y-50919047D01*
X139114285Y-50919047D01*
G04 #@! TO.C,K1*
X136421904Y-43632380D02*
X136421904Y-42632380D01*
X136993333Y-43632380D02*
X136564761Y-43060952D01*
X136993333Y-42632380D02*
X136421904Y-43203809D01*
X137945714Y-43632380D02*
X137374285Y-43632380D01*
X137660000Y-43632380D02*
X137660000Y-42632380D01*
X137564761Y-42775238D01*
X137469523Y-42870476D01*
X137374285Y-42918095D01*
G04 #@! TO.C,Q1*
X122459761Y-50077619D02*
X122364523Y-50030000D01*
X122269285Y-49934761D01*
X122126428Y-49791904D01*
X122031190Y-49744285D01*
X121935952Y-49744285D01*
X121983571Y-49982380D02*
X121888333Y-49934761D01*
X121793095Y-49839523D01*
X121745476Y-49649047D01*
X121745476Y-49315714D01*
X121793095Y-49125238D01*
X121888333Y-49030000D01*
X121983571Y-48982380D01*
X122174047Y-48982380D01*
X122269285Y-49030000D01*
X122364523Y-49125238D01*
X122412142Y-49315714D01*
X122412142Y-49649047D01*
X122364523Y-49839523D01*
X122269285Y-49934761D01*
X122174047Y-49982380D01*
X121983571Y-49982380D01*
X123364523Y-49982380D02*
X122793095Y-49982380D01*
X123078809Y-49982380D02*
X123078809Y-48982380D01*
X122983571Y-49125238D01*
X122888333Y-49220476D01*
X122793095Y-49268095D01*
G04 #@! TO.C,R3*
X119213333Y-47602380D02*
X118880000Y-47126190D01*
X118641904Y-47602380D02*
X118641904Y-46602380D01*
X119022857Y-46602380D01*
X119118095Y-46650000D01*
X119165714Y-46697619D01*
X119213333Y-46792857D01*
X119213333Y-46935714D01*
X119165714Y-47030952D01*
X119118095Y-47078571D01*
X119022857Y-47126190D01*
X118641904Y-47126190D01*
X119546666Y-46602380D02*
X120165714Y-46602380D01*
X119832380Y-46983333D01*
X119975238Y-46983333D01*
X120070476Y-47030952D01*
X120118095Y-47078571D01*
X120165714Y-47173809D01*
X120165714Y-47411904D01*
X120118095Y-47507142D01*
X120070476Y-47554761D01*
X119975238Y-47602380D01*
X119689523Y-47602380D01*
X119594285Y-47554761D01*
X119546666Y-47507142D01*
G04 #@! TO.C,R4*
X119832380Y-36996666D02*
X119356190Y-37330000D01*
X119832380Y-37568095D02*
X118832380Y-37568095D01*
X118832380Y-37187142D01*
X118880000Y-37091904D01*
X118927619Y-37044285D01*
X119022857Y-36996666D01*
X119165714Y-36996666D01*
X119260952Y-37044285D01*
X119308571Y-37091904D01*
X119356190Y-37187142D01*
X119356190Y-37568095D01*
X119165714Y-36139523D02*
X119832380Y-36139523D01*
X118784761Y-36377619D02*
X119499047Y-36615714D01*
X119499047Y-35996666D01*
G04 #@! TO.C,U1*
X97822380Y-40131904D02*
X98631904Y-40131904D01*
X98727142Y-40084285D01*
X98774761Y-40036666D01*
X98822380Y-39941428D01*
X98822380Y-39750952D01*
X98774761Y-39655714D01*
X98727142Y-39608095D01*
X98631904Y-39560476D01*
X97822380Y-39560476D01*
X98822380Y-38560476D02*
X98822380Y-39131904D01*
X98822380Y-38846190D02*
X97822380Y-38846190D01*
X97965238Y-38941428D01*
X98060476Y-39036666D01*
X98108095Y-39131904D01*
G04 #@! TO.C,C3*
X102703333Y-49792142D02*
X102655714Y-49839761D01*
X102512857Y-49887380D01*
X102417619Y-49887380D01*
X102274761Y-49839761D01*
X102179523Y-49744523D01*
X102131904Y-49649285D01*
X102084285Y-49458809D01*
X102084285Y-49315952D01*
X102131904Y-49125476D01*
X102179523Y-49030238D01*
X102274761Y-48935000D01*
X102417619Y-48887380D01*
X102512857Y-48887380D01*
X102655714Y-48935000D01*
X102703333Y-48982619D01*
X103036666Y-48887380D02*
X103655714Y-48887380D01*
X103322380Y-49268333D01*
X103465238Y-49268333D01*
X103560476Y-49315952D01*
X103608095Y-49363571D01*
X103655714Y-49458809D01*
X103655714Y-49696904D01*
X103608095Y-49792142D01*
X103560476Y-49839761D01*
X103465238Y-49887380D01*
X103179523Y-49887380D01*
X103084285Y-49839761D01*
X103036666Y-49792142D01*
G04 #@! TO.C,RV1*
X106684761Y-55697380D02*
X106351428Y-55221190D01*
X106113333Y-55697380D02*
X106113333Y-54697380D01*
X106494285Y-54697380D01*
X106589523Y-54745000D01*
X106637142Y-54792619D01*
X106684761Y-54887857D01*
X106684761Y-55030714D01*
X106637142Y-55125952D01*
X106589523Y-55173571D01*
X106494285Y-55221190D01*
X106113333Y-55221190D01*
X106970476Y-54697380D02*
X107303809Y-55697380D01*
X107637142Y-54697380D01*
X108494285Y-55697380D02*
X107922857Y-55697380D01*
X108208571Y-55697380D02*
X108208571Y-54697380D01*
X108113333Y-54840238D01*
X108018095Y-54935476D01*
X107922857Y-54983095D01*
G04 #@! TO.C,R2*
X107767380Y-49696666D02*
X107291190Y-50030000D01*
X107767380Y-50268095D02*
X106767380Y-50268095D01*
X106767380Y-49887142D01*
X106815000Y-49791904D01*
X106862619Y-49744285D01*
X106957857Y-49696666D01*
X107100714Y-49696666D01*
X107195952Y-49744285D01*
X107243571Y-49791904D01*
X107291190Y-49887142D01*
X107291190Y-50268095D01*
X106862619Y-49315714D02*
X106815000Y-49268095D01*
X106767380Y-49172857D01*
X106767380Y-48934761D01*
X106815000Y-48839523D01*
X106862619Y-48791904D01*
X106957857Y-48744285D01*
X107053095Y-48744285D01*
X107195952Y-48791904D01*
X107767380Y-49363333D01*
X107767380Y-48744285D01*
G04 #@! TO.C,U2*
X114173095Y-47302380D02*
X114173095Y-48111904D01*
X114220714Y-48207142D01*
X114268333Y-48254761D01*
X114363571Y-48302380D01*
X114554047Y-48302380D01*
X114649285Y-48254761D01*
X114696904Y-48207142D01*
X114744523Y-48111904D01*
X114744523Y-47302380D01*
X115173095Y-47397619D02*
X115220714Y-47350000D01*
X115315952Y-47302380D01*
X115554047Y-47302380D01*
X115649285Y-47350000D01*
X115696904Y-47397619D01*
X115744523Y-47492857D01*
X115744523Y-47588095D01*
X115696904Y-47730952D01*
X115125476Y-48302380D01*
X115744523Y-48302380D01*
G04 #@! TO.C,R1*
X117292380Y-40806666D02*
X116816190Y-41140000D01*
X117292380Y-41378095D02*
X116292380Y-41378095D01*
X116292380Y-40997142D01*
X116340000Y-40901904D01*
X116387619Y-40854285D01*
X116482857Y-40806666D01*
X116625714Y-40806666D01*
X116720952Y-40854285D01*
X116768571Y-40901904D01*
X116816190Y-40997142D01*
X116816190Y-41378095D01*
X117292380Y-39854285D02*
X117292380Y-40425714D01*
X117292380Y-40140000D02*
X116292380Y-40140000D01*
X116435238Y-40235238D01*
X116530476Y-40330476D01*
X116578095Y-40425714D01*
G04 #@! TO.C,C6*
X111593333Y-49887142D02*
X111545714Y-49934761D01*
X111402857Y-49982380D01*
X111307619Y-49982380D01*
X111164761Y-49934761D01*
X111069523Y-49839523D01*
X111021904Y-49744285D01*
X110974285Y-49553809D01*
X110974285Y-49410952D01*
X111021904Y-49220476D01*
X111069523Y-49125238D01*
X111164761Y-49030000D01*
X111307619Y-48982380D01*
X111402857Y-48982380D01*
X111545714Y-49030000D01*
X111593333Y-49077619D01*
X112450476Y-48982380D02*
X112260000Y-48982380D01*
X112164761Y-49030000D01*
X112117142Y-49077619D01*
X112021904Y-49220476D01*
X111974285Y-49410952D01*
X111974285Y-49791904D01*
X112021904Y-49887142D01*
X112069523Y-49934761D01*
X112164761Y-49982380D01*
X112355238Y-49982380D01*
X112450476Y-49934761D01*
X112498095Y-49887142D01*
X112545714Y-49791904D01*
X112545714Y-49553809D01*
X112498095Y-49458571D01*
X112450476Y-49410952D01*
X112355238Y-49363333D01*
X112164761Y-49363333D01*
X112069523Y-49410952D01*
X112021904Y-49458571D01*
X111974285Y-49553809D01*
G04 #@! TO.C,C8*
X100457142Y-50566666D02*
X100504761Y-50614285D01*
X100552380Y-50757142D01*
X100552380Y-50852380D01*
X100504761Y-50995238D01*
X100409523Y-51090476D01*
X100314285Y-51138095D01*
X100123809Y-51185714D01*
X99980952Y-51185714D01*
X99790476Y-51138095D01*
X99695238Y-51090476D01*
X99600000Y-50995238D01*
X99552380Y-50852380D01*
X99552380Y-50757142D01*
X99600000Y-50614285D01*
X99647619Y-50566666D01*
X99980952Y-49995238D02*
X99933333Y-50090476D01*
X99885714Y-50138095D01*
X99790476Y-50185714D01*
X99742857Y-50185714D01*
X99647619Y-50138095D01*
X99600000Y-50090476D01*
X99552380Y-49995238D01*
X99552380Y-49804761D01*
X99600000Y-49709523D01*
X99647619Y-49661904D01*
X99742857Y-49614285D01*
X99790476Y-49614285D01*
X99885714Y-49661904D01*
X99933333Y-49709523D01*
X99980952Y-49804761D01*
X99980952Y-49995238D01*
X100028571Y-50090476D01*
X100076190Y-50138095D01*
X100171428Y-50185714D01*
X100361904Y-50185714D01*
X100457142Y-50138095D01*
X100504761Y-50090476D01*
X100552380Y-49995238D01*
X100552380Y-49804761D01*
X100504761Y-49709523D01*
X100457142Y-49661904D01*
X100361904Y-49614285D01*
X100171428Y-49614285D01*
X100076190Y-49661904D01*
X100028571Y-49709523D01*
X99980952Y-49804761D01*
D10*
G04 #@! TO.C,C1*
X96753750Y-36531250D02*
X96753750Y-35743750D01*
X96120000Y-31944437D02*
X95055563Y-30880000D01*
X95055563Y-37700000D02*
X89300000Y-37700000D01*
X96120000Y-36635563D02*
X96120000Y-35350000D01*
X96120000Y-31944437D02*
X96120000Y-33230000D01*
X89300000Y-37700000D02*
X89300000Y-35350000D01*
X95055563Y-30880000D02*
X89300000Y-30880000D01*
X89300000Y-30880000D02*
X89300000Y-33230000D01*
X96120000Y-36635563D02*
X95055563Y-37700000D01*
X97147500Y-36137500D02*
X96360000Y-36137500D01*
G04 #@! TO.C,C2*
X92872779Y-39880000D02*
X92547221Y-39880000D01*
X92872779Y-38860000D02*
X92547221Y-38860000D01*
G04 #@! TO.C,C4*
X110327221Y-40130000D02*
X110652779Y-40130000D01*
X110327221Y-41150000D02*
X110652779Y-41150000D01*
G04 #@! TO.C,C5*
X116330000Y-34452779D02*
X116330000Y-34127221D01*
X117350000Y-34452779D02*
X117350000Y-34127221D01*
G04 #@! TO.C,C7*
X109912500Y-38727500D02*
X109912500Y-37940000D01*
X109518750Y-38333750D02*
X110306250Y-38333750D01*
X109414437Y-37700000D02*
X108350000Y-36635563D01*
X115170000Y-36635563D02*
X115170000Y-30880000D01*
X114105563Y-37700000D02*
X112820000Y-37700000D01*
X108350000Y-36635563D02*
X108350000Y-30880000D01*
X114105563Y-37700000D02*
X115170000Y-36635563D01*
X108350000Y-30880000D02*
X110700000Y-30880000D01*
X109414437Y-37700000D02*
X110700000Y-37700000D01*
X115170000Y-30880000D02*
X112820000Y-30880000D01*
G04 #@! TO.C,D1*
X91010000Y-46650000D02*
X90210000Y-46650000D01*
X95210000Y-46650000D02*
X95210000Y-42250000D01*
X93510000Y-46650000D02*
X91910000Y-46650000D01*
X90210000Y-46650000D02*
X90210000Y-42250000D01*
X94710000Y-42250000D02*
X94710000Y-40850000D01*
X95210000Y-42250000D02*
X94710000Y-42250000D01*
X90210000Y-42250000D02*
X91010000Y-42250000D01*
X94410000Y-46650000D02*
X95210000Y-46650000D01*
X93510000Y-42250000D02*
X91910000Y-42250000D01*
G04 #@! TO.C,D2*
X120115000Y-41695000D02*
X118645000Y-41695000D01*
X120115000Y-43980000D02*
X120115000Y-41695000D01*
X118645000Y-41695000D02*
X118645000Y-43980000D01*
G04 #@! TO.C,D3*
X121540000Y-37240000D02*
X121540000Y-42640000D01*
X124840000Y-37240000D02*
X124840000Y-42640000D01*
X124840000Y-37240000D02*
X121540000Y-37240000D01*
G04 #@! TO.C,H1*
X87044903Y-53340000D02*
G75*
G03*
X87044903Y-53340000I-3224903J0D01*
G01*
G36*
X84320000Y-50140000D02*
G01*
X85320000Y-50440000D01*
X86120000Y-51040000D01*
X86620000Y-51740000D01*
X86920000Y-52440000D01*
X87020000Y-52840000D01*
X87020000Y-53340000D01*
X85420000Y-53340000D01*
X85420000Y-53240000D01*
X85320000Y-52840000D01*
X85120000Y-52440000D01*
X84720000Y-52040000D01*
X84320000Y-51840000D01*
X83920000Y-51740000D01*
X83820000Y-51740000D01*
X83820000Y-50115097D01*
X84320000Y-50140000D01*
G37*
D14*
X84320000Y-50140000D02*
X85320000Y-50440000D01*
X86120000Y-51040000D01*
X86620000Y-51740000D01*
X86920000Y-52440000D01*
X87020000Y-52840000D01*
X87020000Y-53340000D01*
X85420000Y-53340000D01*
X85420000Y-53240000D01*
X85320000Y-52840000D01*
X85120000Y-52440000D01*
X84720000Y-52040000D01*
X84320000Y-51840000D01*
X83920000Y-51740000D01*
X83820000Y-51740000D01*
X83820000Y-50115097D01*
X84320000Y-50140000D01*
G36*
X82220000Y-53440000D02*
G01*
X82320000Y-53840000D01*
X82520000Y-54240000D01*
X82920000Y-54640000D01*
X83320000Y-54840000D01*
X83720000Y-54940000D01*
X83820000Y-54940000D01*
X83820000Y-56564903D01*
X83320000Y-56540000D01*
X82320000Y-56240000D01*
X81520000Y-55640000D01*
X81020000Y-54940000D01*
X80720000Y-54240000D01*
X80620000Y-53840000D01*
X80620000Y-53340000D01*
X82220000Y-53340000D01*
X82220000Y-53440000D01*
G37*
X82220000Y-53440000D02*
X82320000Y-53840000D01*
X82520000Y-54240000D01*
X82920000Y-54640000D01*
X83320000Y-54840000D01*
X83720000Y-54940000D01*
X83820000Y-54940000D01*
X83820000Y-56564903D01*
X83320000Y-56540000D01*
X82320000Y-56240000D01*
X81520000Y-55640000D01*
X81020000Y-54940000D01*
X80720000Y-54240000D01*
X80620000Y-53840000D01*
X80620000Y-53340000D01*
X82220000Y-53340000D01*
X82220000Y-53440000D01*
D10*
G04 #@! TO.C,H2*
X128954903Y-33020000D02*
G75*
G03*
X128954903Y-33020000I-3224903J0D01*
G01*
G36*
X124130000Y-33120000D02*
G01*
X124230000Y-33520000D01*
X124430000Y-33920000D01*
X124830000Y-34320000D01*
X125230000Y-34520000D01*
X125630000Y-34620000D01*
X125730000Y-34620000D01*
X125730000Y-36244903D01*
X125230000Y-36220000D01*
X124230000Y-35920000D01*
X123430000Y-35320000D01*
X122930000Y-34620000D01*
X122630000Y-33920000D01*
X122530000Y-33520000D01*
X122530000Y-33020000D01*
X124130000Y-33020000D01*
X124130000Y-33120000D01*
G37*
D14*
X124130000Y-33120000D02*
X124230000Y-33520000D01*
X124430000Y-33920000D01*
X124830000Y-34320000D01*
X125230000Y-34520000D01*
X125630000Y-34620000D01*
X125730000Y-34620000D01*
X125730000Y-36244903D01*
X125230000Y-36220000D01*
X124230000Y-35920000D01*
X123430000Y-35320000D01*
X122930000Y-34620000D01*
X122630000Y-33920000D01*
X122530000Y-33520000D01*
X122530000Y-33020000D01*
X124130000Y-33020000D01*
X124130000Y-33120000D01*
G36*
X126230000Y-29820000D02*
G01*
X127230000Y-30120000D01*
X128030000Y-30720000D01*
X128530000Y-31420000D01*
X128830000Y-32120000D01*
X128930000Y-32520000D01*
X128930000Y-33020000D01*
X127330000Y-33020000D01*
X127330000Y-32920000D01*
X127230000Y-32520000D01*
X127030000Y-32120000D01*
X126630000Y-31720000D01*
X126230000Y-31520000D01*
X125830000Y-31420000D01*
X125730000Y-31420000D01*
X125730000Y-29795097D01*
X126230000Y-29820000D01*
G37*
X126230000Y-29820000D02*
X127230000Y-30120000D01*
X128030000Y-30720000D01*
X128530000Y-31420000D01*
X128830000Y-32120000D01*
X128930000Y-32520000D01*
X128930000Y-33020000D01*
X127330000Y-33020000D01*
X127330000Y-32920000D01*
X127230000Y-32520000D01*
X127030000Y-32120000D01*
X126630000Y-31720000D01*
X126230000Y-31520000D01*
X125830000Y-31420000D01*
X125730000Y-31420000D01*
X125730000Y-29795097D01*
X126230000Y-29820000D01*
D10*
G04 #@! TO.C,H3*
X87044903Y-33020000D02*
G75*
G03*
X87044903Y-33020000I-3224903J0D01*
G01*
G36*
X84320000Y-29820000D02*
G01*
X85320000Y-30120000D01*
X86120000Y-30720000D01*
X86620000Y-31420000D01*
X86920000Y-32120000D01*
X87020000Y-32520000D01*
X87020000Y-33020000D01*
X85420000Y-33020000D01*
X85420000Y-32920000D01*
X85320000Y-32520000D01*
X85120000Y-32120000D01*
X84720000Y-31720000D01*
X84320000Y-31520000D01*
X83920000Y-31420000D01*
X83820000Y-31420000D01*
X83820000Y-29795097D01*
X84320000Y-29820000D01*
G37*
D14*
X84320000Y-29820000D02*
X85320000Y-30120000D01*
X86120000Y-30720000D01*
X86620000Y-31420000D01*
X86920000Y-32120000D01*
X87020000Y-32520000D01*
X87020000Y-33020000D01*
X85420000Y-33020000D01*
X85420000Y-32920000D01*
X85320000Y-32520000D01*
X85120000Y-32120000D01*
X84720000Y-31720000D01*
X84320000Y-31520000D01*
X83920000Y-31420000D01*
X83820000Y-31420000D01*
X83820000Y-29795097D01*
X84320000Y-29820000D01*
G36*
X82220000Y-33120000D02*
G01*
X82320000Y-33520000D01*
X82520000Y-33920000D01*
X82920000Y-34320000D01*
X83320000Y-34520000D01*
X83720000Y-34620000D01*
X83820000Y-34620000D01*
X83820000Y-36244903D01*
X83320000Y-36220000D01*
X82320000Y-35920000D01*
X81520000Y-35320000D01*
X81020000Y-34620000D01*
X80720000Y-33920000D01*
X80620000Y-33520000D01*
X80620000Y-33020000D01*
X82220000Y-33020000D01*
X82220000Y-33120000D01*
G37*
X82220000Y-33120000D02*
X82320000Y-33520000D01*
X82520000Y-33920000D01*
X82920000Y-34320000D01*
X83320000Y-34520000D01*
X83720000Y-34620000D01*
X83820000Y-34620000D01*
X83820000Y-36244903D01*
X83320000Y-36220000D01*
X82320000Y-35920000D01*
X81520000Y-35320000D01*
X81020000Y-34620000D01*
X80720000Y-33920000D01*
X80620000Y-33520000D01*
X80620000Y-33020000D01*
X82220000Y-33020000D01*
X82220000Y-33120000D01*
D10*
G04 #@! TO.C,H4*
X128954903Y-53340000D02*
G75*
G03*
X128954903Y-53340000I-3224903J0D01*
G01*
G36*
X126230000Y-50140000D02*
G01*
X127230000Y-50440000D01*
X128030000Y-51040000D01*
X128530000Y-51740000D01*
X128830000Y-52440000D01*
X128930000Y-52840000D01*
X128930000Y-53340000D01*
X127330000Y-53340000D01*
X127330000Y-53240000D01*
X127230000Y-52840000D01*
X127030000Y-52440000D01*
X126630000Y-52040000D01*
X126230000Y-51840000D01*
X125830000Y-51740000D01*
X125730000Y-51740000D01*
X125730000Y-50115097D01*
X126230000Y-50140000D01*
G37*
D14*
X126230000Y-50140000D02*
X127230000Y-50440000D01*
X128030000Y-51040000D01*
X128530000Y-51740000D01*
X128830000Y-52440000D01*
X128930000Y-52840000D01*
X128930000Y-53340000D01*
X127330000Y-53340000D01*
X127330000Y-53240000D01*
X127230000Y-52840000D01*
X127030000Y-52440000D01*
X126630000Y-52040000D01*
X126230000Y-51840000D01*
X125830000Y-51740000D01*
X125730000Y-51740000D01*
X125730000Y-50115097D01*
X126230000Y-50140000D01*
G36*
X124130000Y-53440000D02*
G01*
X124230000Y-53840000D01*
X124430000Y-54240000D01*
X124830000Y-54640000D01*
X125230000Y-54840000D01*
X125630000Y-54940000D01*
X125730000Y-54940000D01*
X125730000Y-56564903D01*
X125230000Y-56540000D01*
X124230000Y-56240000D01*
X123430000Y-55640000D01*
X122930000Y-54940000D01*
X122630000Y-54240000D01*
X122530000Y-53840000D01*
X122530000Y-53340000D01*
X124130000Y-53340000D01*
X124130000Y-53440000D01*
G37*
X124130000Y-53440000D02*
X124230000Y-53840000D01*
X124430000Y-54240000D01*
X124830000Y-54640000D01*
X125230000Y-54840000D01*
X125630000Y-54940000D01*
X125730000Y-54940000D01*
X125730000Y-56564903D01*
X125230000Y-56540000D01*
X124230000Y-56240000D01*
X123430000Y-55640000D01*
X122930000Y-54940000D01*
X122630000Y-54240000D01*
X122530000Y-53840000D01*
X122530000Y-53340000D01*
X124130000Y-53340000D01*
X124130000Y-53440000D01*
D10*
G04 #@! TO.C,J1*
X99060000Y-55880000D02*
X88900000Y-55880000D01*
X88900000Y-49530000D02*
X88900000Y-57150000D01*
X99060000Y-57150000D02*
X99060000Y-49530000D01*
X88900000Y-57150000D02*
X99060000Y-57150000D01*
X99060000Y-49530000D02*
X88900000Y-49530000D01*
G04 #@! TO.C,J2*
X80010000Y-48260000D02*
X87630000Y-48260000D01*
X80010000Y-38100000D02*
X80010000Y-48260000D01*
X87630000Y-38100000D02*
X80010000Y-38100000D01*
X81280000Y-48260000D02*
X81280000Y-38100000D01*
X87630000Y-48260000D02*
X87630000Y-38100000D01*
G04 #@! TO.C,J3*
X146050000Y-29210000D02*
X130810000Y-29210000D01*
X146050000Y-30480000D02*
X130810000Y-30480000D01*
X130810000Y-29210000D02*
X130810000Y-36830000D01*
X146050000Y-36830000D02*
X130810000Y-36830000D01*
X146050000Y-29210000D02*
X146050000Y-36830000D01*
G04 #@! TO.C,J4*
X130810000Y-55880000D02*
X146050000Y-55880000D01*
X146050000Y-57150000D02*
X146050000Y-49530000D01*
X130810000Y-57150000D02*
X146050000Y-57150000D01*
X130810000Y-49530000D02*
X146050000Y-49530000D01*
X130810000Y-57150000D02*
X130810000Y-49530000D01*
G04 #@! TO.C,K1*
X127000000Y-42890000D02*
X127000000Y-41790000D01*
X146200000Y-48390000D02*
X125600000Y-48390000D01*
X127000000Y-43590000D02*
X127000000Y-44690000D01*
X146200000Y-37990000D02*
X146200000Y-48390000D01*
X127600000Y-42890000D02*
X126400000Y-42890000D01*
X125600000Y-48390000D02*
X125600000Y-37990000D01*
X127600000Y-43590000D02*
X127600000Y-42890000D01*
X127100000Y-48590000D02*
X125400000Y-48590000D01*
X125600000Y-37990000D02*
X146200000Y-37990000D01*
X126400000Y-43590000D02*
X127600000Y-43590000D01*
X125400000Y-48590000D02*
X125400000Y-47090000D01*
X126400000Y-42890000D02*
X126400000Y-43590000D01*
X127200000Y-43590000D02*
X126800000Y-42890000D01*
G04 #@! TO.C,Q1*
X123950000Y-45410000D02*
X121790000Y-45410000D01*
X123950000Y-48570000D02*
X122490000Y-48570000D01*
X123950000Y-48570000D02*
X123950000Y-47640000D01*
X123950000Y-45410000D02*
X123950000Y-46340000D01*
G04 #@! TO.C,R3*
X119542779Y-46230000D02*
X119217221Y-46230000D01*
X119542779Y-45210000D02*
X119217221Y-45210000D01*
G04 #@! TO.C,R4*
X119890000Y-39207221D02*
X119890000Y-39532779D01*
X118870000Y-39207221D02*
X118870000Y-39532779D01*
G04 #@! TO.C,U1*
X99690000Y-38030000D02*
X99690000Y-40860000D01*
X106320000Y-38030000D02*
X106050000Y-38030000D01*
X106320000Y-36530000D02*
X106320000Y-38030000D01*
X106050000Y-38030000D02*
X106050000Y-39130000D01*
X99420000Y-38030000D02*
X99690000Y-38030000D01*
X99420000Y-36530000D02*
X99420000Y-38030000D01*
G04 #@! TO.C,C3*
X106280000Y-47430563D02*
X106280000Y-46145000D01*
X106913750Y-47326250D02*
X106913750Y-46538750D01*
X106280000Y-42739437D02*
X105215563Y-41675000D01*
X106280000Y-47430563D02*
X105215563Y-48495000D01*
X99460000Y-48495000D02*
X99460000Y-46145000D01*
X107307500Y-46932500D02*
X106520000Y-46932500D01*
X99460000Y-41675000D02*
X99460000Y-44025000D01*
X105215563Y-48495000D02*
X99460000Y-48495000D01*
X106280000Y-42739437D02*
X106280000Y-44025000D01*
X105215563Y-41675000D02*
X99460000Y-41675000D01*
G04 #@! TO.C,RV1*
X101125000Y-50810000D02*
X101125000Y-55880000D01*
D15*
X109505000Y-55575000D02*
X109506000Y-53406000D01*
D10*
X101125000Y-55880000D02*
X110895000Y-55880000D01*
X101125000Y-50810000D02*
X110895000Y-50810000D01*
X110895000Y-50810000D02*
X110895000Y-55880000D01*
D15*
X110600000Y-54490000D02*
G75*
G03*
X110600000Y-54490000I-1095000J0D01*
G01*
D10*
G04 #@! TO.C,R2*
X108075000Y-48579721D02*
X108075000Y-48905279D01*
X109095000Y-48579721D02*
X109095000Y-48905279D01*
G04 #@! TO.C,U2*
X111760000Y-47010000D02*
X109810000Y-47010000D01*
X111760000Y-41890000D02*
X113710000Y-41890000D01*
X111760000Y-41890000D02*
X109810000Y-41890000D01*
X111760000Y-47010000D02*
X115210000Y-47010000D01*
G04 #@! TO.C,R1*
X117350000Y-43017221D02*
X117350000Y-43342779D01*
X116330000Y-43017221D02*
X116330000Y-43342779D01*
G04 #@! TO.C,C6*
X111597221Y-47750000D02*
X111922779Y-47750000D01*
X111597221Y-48770000D02*
X111922779Y-48770000D01*
G04 #@! TO.C,C8*
X99590000Y-53140580D02*
X99590000Y-52859420D01*
X100610000Y-53140580D02*
X100610000Y-52859420D01*
G04 #@! TD*
M02*
