G04 #@! TF.GenerationSoftware,KiCad,Pcbnew,6.0.9-8da3e8f707~116~ubuntu20.04.1*
G04 #@! TF.CreationDate,2023-03-26T17:56:33+00:00*
G04 #@! TF.ProjectId,LEC011001,4c454330-3131-4303-9031-2e6b69636164,rev?*
G04 #@! TF.SameCoordinates,Original*
G04 #@! TF.FileFunction,Profile,NP*
%FSLAX46Y46*%
G04 Gerber Fmt 4.6, Leading zero omitted, Abs format (unit mm)*
G04 Created by KiCad (PCBNEW 6.0.9-8da3e8f707~116~ubuntu20.04.1) date 2023-03-26 17:56:33*
%MOMM*%
%LPD*%
G01*
G04 APERTURE LIST*
G04 #@! TA.AperFunction,Profile*
%ADD10C,0.050000*%
G04 #@! TD*
G04 APERTURE END LIST*
D10*
X144780000Y-59055000D02*
X146685000Y-57150000D01*
X80010000Y-55245000D02*
X80010000Y-55880000D01*
X130175000Y-29210000D02*
X81915000Y-29210000D01*
X146685000Y-57150000D02*
X146685000Y-29210000D01*
X80010000Y-30480000D02*
X80010000Y-37465000D01*
X80010000Y-55880000D02*
X81280000Y-57150000D01*
X146685000Y-29210000D02*
X144780000Y-27305000D01*
X97790000Y-59055000D02*
X99695000Y-57150000D01*
X80010000Y-37465000D02*
X78105000Y-39370000D01*
X81280000Y-29210000D02*
X80010000Y-30480000D01*
X130175000Y-57150000D02*
X132080000Y-59055000D01*
X132080000Y-27305000D02*
X130175000Y-29210000D01*
X78105000Y-46990000D02*
X80010000Y-48895000D01*
X99695000Y-57150000D02*
X130175000Y-57150000D01*
X81915000Y-29210000D02*
X81280000Y-29210000D01*
X88265000Y-57150000D02*
X90170000Y-59055000D01*
X81280000Y-57150000D02*
X88265000Y-57150000D01*
X132080000Y-59055000D02*
X144780000Y-59055000D01*
X90170000Y-59055000D02*
X97790000Y-59055000D01*
X144780000Y-27305000D02*
X132080000Y-27305000D01*
X80010000Y-48895000D02*
X80010000Y-55245000D01*
X78105000Y-39370000D02*
X78105000Y-46990000D01*
M02*
